<?xml version="1.0" standalone="no"?><!DOCTYPE svg PUBLIC "-//W3C//DTD SVG 1.1//EN" "http://www.w3.org/Graphics/SVG/1.1/DTD/svg11.dtd"><svg height="1024" node-id="1" sillyvg="true" template-height="1024" template-width="1024" version="1.1" viewBox="0 0 1024 1024" width="1024" xmlns="http://www.w3.org/2000/svg" xmlns:xlink="http://www.w3.org/1999/xlink"><defs node-id="66"></defs><path d="M 0.00 0.00 L 1024.00 0.00 L 1024.00 1024.00 L 0.00 1024.00 Z" fill="#ffffff" fill-rule="nonzero" node-id="68" stroke="none" target-height="1024" target-width="1024" target-x="0" target-y="0"></path><path d="M 499.00 527.50 L 506.40 524.90 L 513.60 521.80 L 520.60 518.30 L 527.40 514.30 L 520.20 555.30 L 517.40 568.90 L 510.00 564.00 L 506.40 561.20 L 503.30 558.10 L 501.50 555.90 L 500.10 553.30 L 499.00 550.60 L 498.80 539.00 L 499.00 527.50 Z" fill="#fdfdfd" fill-rule="nonzero" node-id="70" stroke="none" target-height="54.600037" target-width="28.600037" target-x="498.8" target-y="514.3"></path><path d="M 419.30 645.40 L 448.80 648.80 L 463.60 649.50 L 461.60 652.30 L 458.90 658.10 L 458.20 661.00 L 457.70 665.10 L 457.90 669.10 L 458.60 673.20 L 459.80 677.10 L 461.50 680.90 L 463.60 684.60 L 466.20 688.00 L 469.10 691.10 L 472.30 693.80 L 475.80 696.20 L 479.50 698.20 L 483.40 699.60 L 483.50 703.50 L 484.10 707.00 L 485.10 710.30 L 486.70 713.40 L 488.50 716.40 L 490.80 719.10 L 496.00 724.00 L 499.00 726.10 L 503.60 728.90 L 508.40 731.20 L 508.00 738.50 L 505.90 747.00 L 500.40 761.90 L 497.30 772.00 L 502.70 774.40 L 508.40 776.20 L 520.10 778.70 L 520.40 785.10 L 522.50 785.10 L 522.90 780.50 L 531.60 778.50 L 540.10 775.70 L 552.70 788.60 L 547.70 797.50 L 543.10 806.50 L 540.30 812.70 L 537.90 819.00 L 536.00 825.40 L 531.90 843.70 L 517.10 846.20 L 507.10 846.90 L 502.20 846.60 L 499.00 846.00 L 492.70 843.90 L 488.50 840.10 L 484.80 835.80 L 474.60 822.40 L 467.90 814.90 L 461.10 809.10 L 444.80 797.20 L 439.80 792.90 L 436.80 789.80 L 434.00 786.30 L 431.60 782.40 L 427.50 774.50 L 423.90 766.40 L 420.70 758.20 L 418.00 749.80 L 415.70 741.30 L 413.90 732.70 L 412.60 724.00 L 411.60 715.20 L 411.10 706.40 L 411.00 697.60 L 411.40 688.80 L 412.20 680.00 L 413.30 671.20 L 414.90 662.50 L 416.90 653.90 L 419.30 645.40 Z" fill="#fdfdfd" fill-rule="nonzero" node-id="72" stroke="none" target-height="201.5" target-width="141.70001" target-x="411" target-y="645.4"></path><path d="M 561.80 801.90 L 563.30 797.40 L 565.30 793.10 L 567.60 789.10 L 570.30 785.40 L 573.30 781.90 L 580.10 775.80 L 584.00 773.10 L 589.40 770.00 L 595.00 767.50 L 601.00 765.60 L 607.10 764.30 L 613.20 763.60 L 619.50 763.50 L 628.70 764.70 L 633.10 765.80 L 641.00 769.00 L 647.20 773.10 L 651.40 776.80 L 655.30 781.00 L 662.20 789.90 L 654.90 784.10 L 651.00 781.60 L 640.90 776.40 L 634.50 773.70 L 630.20 772.30 L 621.40 770.30 L 616.90 769.80 L 612.40 769.90 L 607.80 770.50 L 602.90 771.80 L 598.30 773.60 L 593.80 775.80 L 589.60 778.50 L 585.70 781.60 L 582.10 785.00 L 578.90 788.90 L 576.10 793.00 L 571.60 801.20 L 561.80 801.90 Z" fill="#fdfdfd" fill-rule="nonzero" node-id="74" stroke="none" target-height="38.400024" target-width="100.400024" target-x="561.8" target-y="763.5"></path><path d="M 191.00 402.50 L 188.50 401.40 L 186.20 399.80 L 184.20 397.80 L 182.80 395.50 L 182.10 393.90 L 181.60 390.40 L 182.40 387.00 L 183.50 385.30 L 190.30 392.70 L 194.50 396.20 L 198.80 397.70 L 202.90 398.30 L 211.20 398.40 L 217.40 397.60 L 223.50 396.30 L 235.40 392.50 L 241.80 391.10 L 247.50 408.80 L 240.80 408.40 L 236.10 400.40 L 221.20 403.40 L 211.00 404.60 L 200.90 404.50 L 196.00 403.80 L 191.00 402.50 Z" fill="#262033" fill-rule="nonzero" node-id="76" stroke="none" target-height="23.5" target-width="65.899994" target-x="181.6" target-y="385.3"></path><path d="M 355.40 404.70 L 357.40 400.80 L 359.70 397.30 L 362.40 394.20 L 365.40 391.40 L 372.20 386.90 L 379.90 383.60 L 385.30 382.20 L 390.90 381.40 L 396.60 381.20 L 402.30 381.60 L 407.90 382.60 L 413.30 384.10 L 420.90 387.60 L 427.70 392.30 L 430.70 395.10 L 433.40 398.30 L 435.70 401.80 L 439.00 408.80 L 440.80 415.30 L 441.40 420.40 L 441.50 425.60 L 440.90 435.90 L 439.20 434.00 L 437.00 429.90 L 436.00 426.40 L 433.40 413.20 L 429.50 405.70 L 427.60 402.90 L 422.90 398.10 L 419.30 395.50 L 415.40 393.30 L 411.20 391.50 L 406.80 390.20 L 402.30 389.30 L 397.70 388.80 L 388.50 388.80 L 380.40 390.00 L 376.90 391.10 L 373.60 392.50 L 368.90 395.20 L 355.40 404.70 Z" fill="#262033" fill-rule="nonzero" node-id="78" stroke="none" target-height="54.69998" target-width="86.100006" target-x="355.4" target-y="381.2"></path><path d="M 612.00 141.50 L 614.30 135.50 L 617.00 129.60 L 619.30 126.00 L 621.80 122.50 L 624.80 119.40 L 620.50 132.10 L 619.10 135.20 L 617.40 137.80 L 615.90 139.30 L 612.00 141.50 Z" fill="#fdfcfd" fill-rule="nonzero" node-id="80" stroke="none" target-height="22.099998" target-width="12.799988" target-x="612" target-y="119.4"></path><path d="M 316.30 446.60 L 319.20 440.40 L 321.50 434.10 L 323.20 427.70 L 324.40 421.20 L 325.90 407.90 L 327.70 377.60 L 328.80 367.70 L 330.30 375.40 L 331.20 383.10 L 331.50 390.90 L 331.50 398.70 L 330.40 414.40 L 327.20 437.60 L 324.90 443.50 L 322.20 449.20 L 319.20 454.70 L 315.80 460.00 L 308.00 469.90 L 303.60 474.40 L 295.50 482.10 L 290.10 488.20 L 286.90 493.70 L 285.80 496.60 L 285.10 499.80 L 285.00 503.20 L 285.60 508.40 L 286.70 513.70 L 288.40 518.80 L 290.60 523.70 L 292.40 526.80 L 296.90 532.30 L 301.10 534.40 L 305.50 535.90 L 310.10 536.80 L 314.70 537.10 L 319.40 536.90 L 324.00 536.10 L 328.50 534.80 L 332.90 533.10 L 337.00 530.80 L 351.50 520.50 L 365.80 509.90 L 379.80 498.80 L 398.80 483.00 L 404.40 479.10 L 410.20 475.50 L 419.70 470.80 L 438.50 466.00 L 448.00 464.20 L 467.30 461.60 L 477.00 460.90 L 486.70 460.70 L 496.50 460.80 L 506.20 461.40 L 515.80 462.50 L 525.40 464.00 L 534.90 466.00 L 533.30 475.90 L 525.70 473.40 L 511.80 470.20 L 500.40 468.70 L 494.60 468.50 L 488.90 468.70 L 483.30 469.30 L 477.90 470.40 L 472.60 471.90 L 467.60 474.10 L 464.00 476.00 L 460.60 478.30 L 457.30 481.10 L 454.20 484.20 L 465.20 500.00 L 473.30 509.90 L 482.30 518.90 L 487.20 523.00 L 492.50 526.70 L 490.70 542.10 L 489.70 545.80 L 488.30 549.30 L 485.50 553.50 L 483.60 555.50 L 476.80 560.00 L 469.30 563.20 L 464.10 564.70 L 458.70 565.50 L 453.20 565.70 L 447.70 565.40 L 442.40 564.40 L 437.20 562.80 L 433.40 561.20 L 429.90 559.20 L 426.60 556.90 L 423.40 554.20 L 420.90 551.40 L 418.70 548.30 L 417.00 545.00 L 414.90 539.80 L 410.10 523.50 L 408.80 526.50 L 407.90 529.60 L 407.60 532.60 L 408.20 538.90 L 409.10 542.00 L 411.00 546.50 L 413.40 550.90 L 416.10 554.90 L 419.10 558.50 L 422.10 561.30 L 425.30 563.80 L 432.20 567.90 L 437.20 569.90 L 442.20 571.30 L 447.50 572.20 L 452.80 572.70 L 458.20 572.60 L 463.60 572.00 L 468.90 570.90 L 474.00 569.40 L 479.10 567.50 L 483.90 565.10 L 488.50 562.20 L 492.70 559.00 L 503.40 569.40 L 515.20 578.70 L 510.60 601.40 L 505.60 624.00 L 480.20 626.50 L 467.40 627.30 L 454.60 627.70 L 446.10 627.60 L 429.20 626.30 L 420.90 625.00 L 412.60 623.20 L 395.70 618.20 L 387.40 615.00 L 379.30 611.30 L 371.50 607.10 L 363.90 602.40 L 356.60 597.30 L 349.70 591.80 L 343.10 585.80 L 336.80 579.50 L 331.00 572.80 L 325.50 565.70 L 320.50 558.30 L 319.80 565.40 L 320.00 567.70 L 320.50 570.00 L 325.40 578.10 L 329.40 583.70 L 333.90 589.00 L 338.80 594.00 L 344.00 598.50 L 358.30 609.00 L 360.90 611.50 L 363.60 615.30 L 364.50 617.60 L 354.80 612.50 L 345.30 606.90 L 339.20 602.90 L 333.40 598.50 L 327.80 593.80 L 322.60 588.70 L 317.80 583.20 L 313.50 577.20 L 308.50 568.90 L 303.80 560.40 L 295.50 542.80 L 287.90 524.90 L 283.90 513.80 L 282.20 508.00 L 281.10 502.20 L 280.70 498.30 L 280.90 494.50 L 281.50 490.50 L 286.40 482.50 L 294.10 473.70 L 304.00 463.70 L 308.70 458.40 L 311.60 454.70 L 314.10 450.80 L 316.30 446.60 Z" fill="#fdfcfd" fill-rule="nonzero" node-id="82" stroke="none" target-height="260" target-width="254.20001" target-x="280.7" target-y="367.7"></path><path d="M 247.30 437.60 L 251.60 432.00 L 252.90 441.60 L 256.20 460.80 L 259.30 475.10 L 263.00 489.20 L 259.10 481.00 L 255.70 472.70 L 252.70 464.10 L 250.30 455.40 L 248.50 446.60 L 247.30 437.60 Z" fill="#fdfcfd" fill-rule="nonzero" node-id="84" stroke="none" target-height="57.200012" target-width="15.699997" target-x="247.3" target-y="432"></path><path d="M 482.90 479.80 L 493.60 479.00 L 499.10 479.00 L 504.50 479.30 L 509.90 480.10 L 515.10 481.30 L 520.20 483.00 L 525.10 485.20 L 529.80 488.10 L 520.60 486.20 L 511.40 485.00 L 502.20 484.30 L 495.20 484.30 L 488.30 484.70 L 481.40 485.60 L 474.50 487.00 L 478.00 482.40 L 479.40 481.10 L 481.00 480.20 L 482.90 479.80 Z" fill="#fdfcfd" fill-rule="nonzero" node-id="86" stroke="none" target-height="9.100006" target-width="55.299988" target-x="474.5" target-y="479"></path><path d="M 606.90 149.40 L 614.60 150.20 L 606.90 168.80 L 598.20 167.70 L 602.30 158.40 L 606.90 149.40 Z" fill="#fefefd" fill-rule="nonzero" node-id="88" stroke="none" target-height="19.40001" target-width="16.399963" target-x="598.2" target-y="149.4"></path><path d="M 161.40 195.10 L 161.80 193.70 L 163.50 191.70 L 165.30 190.90 L 167.40 190.60 L 169.50 190.90 L 171.20 191.80 L 172.80 193.80 L 173.20 195.20 L 172.10 197.70 L 171.10 198.50 L 169.30 199.30 L 167.20 199.60 L 165.10 199.30 L 163.30 198.40 L 161.70 196.50 L 161.40 195.10 Z" fill="#fefefd" fill-rule="nonzero" node-id="90" stroke="none" target-height="9" target-width="11.800003" target-x="161.4" target-y="190.6"></path><path d="M 218.90 279.10 L 221.50 278.30 L 223.20 278.20 L 224.30 278.60 L 225.00 279.20 L 225.30 280.30 L 225.30 282.10 L 224.60 284.80 L 221.90 285.50 L 220.20 285.50 L 219.10 285.20 L 218.40 284.50 L 218.10 283.40 L 218.20 281.70 L 218.90 279.10 Z" fill="#fefefd" fill-rule="nonzero" node-id="92" stroke="none" target-height="7.299988" target-width="7.199997" target-x="218.1" target-y="278.2"></path><path d="M 673.30 749.70 L 676.20 751.70 L 678.80 754.00 L 681.00 756.60 L 684.40 762.40 L 685.70 765.60 L 687.10 770.50 L 688.80 780.90 L 689.10 786.00 L 688.70 793.10 L 687.80 800.30 L 686.30 807.30 L 684.90 812.60 L 681.00 822.60 L 678.50 827.40 L 678.90 819.60 L 680.00 812.00 L 681.70 805.60 L 682.90 798.90 L 683.70 789.70 L 683.20 780.60 L 682.30 776.20 L 680.90 772.00 L 679.10 768.00 L 676.70 764.30 L 673.70 760.80 L 668.60 764.90 L 662.20 771.10 L 673.30 749.70 Z" fill="#fefefd" fill-rule="nonzero" node-id="94" stroke="none" target-height="77.70001" target-width="26.899963" target-x="662.2" target-y="749.7"></path><path d="M 337.60 790.00 L 341.30 787.30 L 345.00 785.10 L 348.90 783.30 L 352.90 782.00 L 358.50 780.70 L 364.10 780.00 L 369.90 779.90 L 375.60 780.30 L 381.40 781.20 L 392.80 784.00 L 403.50 787.90 L 383.00 785.40 L 377.70 785.00 L 372.40 785.10 L 367.00 785.70 L 361.80 786.80 L 356.60 788.20 L 351.50 790.10 L 346.70 792.50 L 342.10 795.20 L 337.80 798.30 L 333.90 801.90 L 330.40 805.80 L 327.30 810.00 L 324.70 814.70 L 322.60 819.70 L 321.50 817.40 L 320.70 813.10 L 320.90 811.00 L 321.60 808.30 L 322.80 805.70 L 324.40 803.10 L 327.40 799.40 L 330.80 796.00 L 337.60 790.00 Z" fill="#fefefd" fill-rule="nonzero" node-id="96" stroke="none" target-height="39.799988" target-width="82.79999" target-x="320.7" target-y="779.9"></path><path d="M 607.80 770.50 L 612.40 769.90 L 616.90 769.80 L 621.40 770.30 L 625.80 771.10 L 634.50 773.70 L 647.00 779.30 L 634.30 775.30 L 627.90 773.60 L 621.40 772.40 L 617.00 772.10 L 612.60 772.10 L 604.40 773.30 L 597.70 775.70 L 590.60 780.10 L 586.80 783.10 L 583.20 786.40 L 578.30 791.80 L 573.70 797.40 L 576.10 793.00 L 578.90 788.90 L 582.10 785.00 L 585.70 781.60 L 589.60 778.50 L 593.80 775.80 L 598.30 773.60 L 602.90 771.80 L 607.80 770.50 Z" fill="#281f33" fill-rule="nonzero" node-id="98" stroke="none" target-height="27.600037" target-width="73.29999" target-x="573.7" target-y="769.8"></path><path d="M 626.00 184.80 L 635.50 190.00 L 653.90 201.30 L 662.80 207.50 L 679.80 220.70 L 696.00 235.10 L 706.20 245.30 L 715.90 255.90 L 725.20 266.90 L 731.60 275.20 L 737.60 283.80 L 743.20 292.60 L 748.50 301.60 L 753.40 310.90 L 758.00 320.30 L 762.10 329.90 L 765.80 339.70 L 769.20 349.60 L 772.10 359.70 L 774.70 369.80 L 776.80 380.10 L 778.50 390.40 L 779.80 400.80 L 780.60 411.20 L 781.10 421.70 L 771.60 426.90 L 770.40 424.40 L 766.40 419.60 L 760.20 415.00 L 756.10 412.60 L 747.90 408.00 L 736.40 402.80 L 724.50 398.00 L 716.50 395.20 L 700.10 390.60 L 691.70 388.90 L 683.40 387.70 L 675.00 387.00 L 668.60 386.90 L 656.00 387.70 L 649.60 388.60 L 652.20 375.00 L 654.30 361.20 L 656.00 347.30 L 657.10 333.20 L 657.70 319.20 L 657.70 305.20 L 657.30 294.60 L 655.40 273.70 L 653.90 263.40 L 652.00 253.10 L 649.60 242.90 L 646.90 232.80 L 643.60 222.90 L 640.00 213.10 L 635.80 203.50 L 631.10 194.10 L 626.00 184.80 Z" fill="#fdf6bc" fill-rule="nonzero" node-id="100" stroke="none" target-height="242.09999" target-width="155.09998" target-x="626" target-y="184.8"></path><path d="M 562.90 368.90 L 567.10 370.30 L 560.80 400.30 L 549.00 460.30 L 540.80 505.50 L 531.10 563.90 L 523.60 603.10 L 521.50 616.30 L 519.90 629.50 L 514.80 629.70 L 527.30 564.60 L 550.20 434.00 L 556.40 401.40 L 562.90 368.90 Z" fill="#fdf6bc" fill-rule="nonzero" node-id="102" stroke="none" target-height="260.80002" target-width="52.299988" target-x="514.8" target-y="368.9"></path><path d="M 516.50 637.90 L 528.00 636.70 L 533.80 636.60 L 539.60 636.90 L 543.40 637.40 L 550.70 639.40 L 554.20 640.90 L 557.50 642.90 L 563.60 647.40 L 568.30 652.40 L 571.40 656.70 L 582.50 674.70 L 585.70 678.70 L 588.10 681.10 L 593.90 685.30 L 607.30 688.90 L 597.70 696.10 L 588.40 689.40 L 583.90 685.70 L 577.30 678.90 L 573.00 672.60 L 564.60 657.70 L 562.30 654.10 L 559.70 650.70 L 555.60 646.90 L 549.40 643.10 L 545.60 641.50 L 541.60 640.30 L 535.40 639.20 L 529.10 638.60 L 516.50 637.90 Z" fill="#fdf6bc" fill-rule="nonzero" node-id="104" stroke="none" target-height="59.5" target-width="90.79999" target-x="516.5" target-y="636.6"></path><path d="M 262.30 380.60 L 268.20 380.70 L 267.80 383.90 L 267.00 387.00 L 264.40 392.50 L 262.00 395.70 L 259.10 398.60 L 255.60 401.10 L 255.10 397.90 L 257.20 397.40 L 258.60 396.70 L 259.70 395.60 L 260.80 393.60 L 261.30 391.20 L 261.90 383.00 L 262.30 380.60 Z" fill="#3b2f44" fill-rule="nonzero" node-id="106" stroke="none" target-height="20.5" target-width="13.100006" target-x="255.1" target-y="380.6"></path><path d="M 631.30 396.00 L 633.60 395.50 L 635.80 395.40 L 637.90 395.90 L 639.60 396.80 L 641.10 398.60 L 641.40 399.80 L 641.10 402.60 L 640.30 404.50 L 638.10 404.90 L 634.50 404.60 L 632.90 403.90 L 631.70 402.90 L 630.80 401.70 L 630.50 400.20 L 630.50 398.30 L 631.30 396.00 Z" fill="#eda058" fill-rule="nonzero" node-id="108" stroke="none" target-height="9.5" target-width="10.900024" target-x="630.5" target-y="395.4"></path><path d="M 540.90 571.70 L 545.00 548.20 L 556.50 477.70 L 583.20 494.00 L 589.10 496.90 L 594.50 500.30 L 599.50 504.00 L 608.80 512.50 L 613.20 517.10 L 631.80 538.90 L 638.20 545.90 L 642.70 550.40 L 652.40 558.50 L 653.60 561.40 L 654.40 564.30 L 654.70 567.20 L 654.30 573.10 L 653.70 576.00 L 652.20 580.30 L 650.10 584.30 L 647.40 589.20 L 644.30 593.80 L 640.90 598.20 L 637.10 602.20 L 628.70 609.50 L 619.40 615.70 L 612.80 619.20 L 606.00 622.10 L 599.00 624.50 L 594.10 625.50 L 589.20 625.90 L 584.40 625.80 L 577.20 624.90 L 569.90 623.40 L 548.40 617.90 L 541.20 616.50 L 548.80 628.00 L 530.80 624.50 L 534.80 600.60 L 539.40 576.80 L 554.10 574.80 L 563.80 572.30 L 568.40 570.50 L 572.70 568.30 L 576.80 565.50 L 580.50 562.10 L 582.30 559.90 L 584.60 555.10 L 585.60 551.10 L 586.10 547.00 L 585.80 538.90 L 577.30 556.10 L 575.50 558.70 L 573.40 561.10 L 570.90 563.20 L 568.00 565.20 L 561.60 568.10 L 556.60 569.50 L 551.40 570.50 L 540.90 571.70 Z" fill="#fefefe" fill-rule="nonzero" node-id="110" stroke="none" target-height="150.29999" target-width="123.900024" target-x="530.8" target-y="477.7"></path><path d="M 160.80 414.20 L 161.50 412.80 L 163.30 411.20 L 165.10 410.70 L 167.00 410.60 L 171.10 411.20 L 165.70 427.10 L 161.70 421.10 L 160.90 419.00 L 160.50 415.90 L 160.80 414.20 Z" fill="#2c2437" fill-rule="nonzero" node-id="112" stroke="none" target-height="16.5" target-width="10.600006" target-x="160.5" target-y="410.6"></path><path d="M 604.60 138.10 L 611.40 122.70 L 613.70 119.10 L 616.30 116.10 L 618.30 114.40 L 620.70 113.00 L 623.40 112.00 L 627.90 113.40 L 630.50 115.50 L 631.60 117.30 L 632.10 119.50 L 632.30 122.00 L 631.80 125.90 L 630.60 130.20 L 625.00 145.70 L 640.70 151.70 L 656.20 158.10 L 671.60 164.90 L 686.80 172.20 L 701.80 179.90 L 716.50 188.10 L 730.90 196.70 L 745.00 205.90 L 758.80 215.50 L 770.00 224.30 L 780.80 233.60 L 791.20 243.20 L 801.20 253.30 L 810.80 263.80 L 820.00 274.60 L 828.80 285.70 L 837.10 297.20 L 845.00 309.00 L 852.40 321.10 L 859.40 333.50 L 865.90 346.20 L 871.80 359.10 L 877.30 372.20 L 882.20 385.50 L 886.60 399.10 L 887.60 403.50 L 890.50 408.10 L 897.10 415.60 L 899.00 418.30 L 900.50 421.00 L 901.50 425.10 L 901.40 427.50 L 900.90 429.40 L 899.90 430.80 L 898.60 431.90 L 892.20 435.50 L 890.80 436.50 L 887.80 434.40 L 885.20 431.90 L 880.70 426.20 L 876.80 420.10 L 870.20 418.30 L 863.60 416.90 L 856.80 416.10 L 850.00 415.60 L 843.20 415.60 L 836.50 416.00 L 829.70 416.80 L 823.00 418.00 L 816.30 419.60 L 803.50 424.00 L 797.30 426.70 L 797.20 441.00 L 796.70 445.90 L 796.00 449.00 L 795.00 451.90 L 792.30 456.30 L 788.70 459.20 L 783.90 461.40 L 781.50 462.00 L 775.20 462.30 L 763.70 460.90 L 754.10 474.60 L 749.10 481.20 L 740.00 491.70 L 731.80 499.20 L 727.40 502.60 L 722.80 505.60 L 717.80 508.30 L 719.90 515.10 L 721.50 521.90 L 722.70 529.00 L 723.50 536.00 L 723.70 543.10 L 723.50 550.20 L 722.80 557.20 L 721.60 564.20 L 719.80 571.00 L 717.50 577.70 L 714.70 584.10 L 711.20 590.40 L 706.80 596.70 L 702.10 602.60 L 696.80 608.20 L 685.40 618.30 L 679.30 622.90 L 669.80 629.30 L 660.10 635.40 L 664.10 643.00 L 667.70 650.80 L 670.90 658.70 L 673.50 666.90 L 675.70 675.10 L 677.40 683.50 L 678.60 691.90 L 679.40 700.50 L 679.70 709.00 L 679.50 717.60 L 678.80 726.20 L 677.60 734.70 L 681.50 737.90 L 688.00 744.90 L 690.80 748.70 L 694.00 754.10 L 696.60 759.70 L 698.80 765.70 L 700.40 771.80 L 701.50 778.00 L 702.10 784.40 L 702.20 790.80 L 701.90 797.20 L 701.10 803.60 L 699.90 809.90 L 698.30 816.00 L 696.30 822.00 L 693.30 828.20 L 690.00 834.20 L 686.30 840.00 L 682.20 845.70 L 677.80 851.10 L 673.10 856.20 L 668.10 861.00 L 662.80 865.50 L 657.30 869.60 L 651.50 873.30 L 645.40 876.60 L 639.20 879.50 L 632.70 881.90 L 626.10 883.70 L 619.30 885.00 L 607.00 886.40 L 601.90 886.50 L 591.80 885.80 L 585.10 884.50 L 578.60 882.80 L 572.20 880.50 L 565.90 877.70 L 559.90 874.60 L 554.00 871.00 L 526.40 873.90 L 512.50 874.90 L 498.60 875.60 L 484.70 875.70 L 470.80 875.30 L 464.60 874.80 L 445.60 871.80 L 439.30 871.20 L 433.00 871.10 L 428.90 871.50 L 424.80 872.30 L 413.60 875.80 L 406.40 877.60 L 391.80 880.40 L 384.40 881.20 L 377.00 881.50 L 369.60 881.40 L 362.30 880.80 L 355.10 879.50 L 344.50 876.50 L 339.40 874.40 L 326.80 867.80 L 319.20 863.10 L 314.30 859.70 L 305.30 852.20 L 301.30 847.90 L 297.90 843.40 L 295.00 838.50 L 293.20 834.70 L 291.90 830.60 L 291.00 826.30 L 289.70 816.00 L 289.30 804.90 L 289.70 796.50 L 290.70 788.20 L 295.90 754.80 L 296.70 746.40 L 296.90 738.00 L 283.20 723.40 L 269.90 708.50 L 230.80 663.10 L 217.60 648.10 L 210.40 639.10 L 204.60 629.40 L 201.40 622.50 L 198.50 615.50 L 196.20 608.20 L 194.20 600.90 L 191.10 586.00 L 188.00 563.70 L 177.60 474.30 L 174.60 452.00 L 168.10 450.80 L 161.30 449.10 L 154.60 446.80 L 148.10 443.90 L 143.90 441.60 L 136.40 436.30 L 133.10 433.10 L 130.20 429.70 L 127.70 426.00 L 124.90 419.80 L 124.00 416.40 L 123.00 409.60 L 123.10 406.70 L 123.70 404.00 L 124.70 401.30 L 127.70 396.60 L 131.80 392.70 L 136.70 389.60 L 142.10 387.60 L 139.60 378.40 L 138.30 368.40 L 138.30 363.50 L 138.80 358.60 L 139.70 353.80 L 141.20 349.20 L 143.20 345.00 L 145.20 342.00 L 147.50 339.30 L 150.20 336.80 L 153.40 334.60 L 156.70 332.90 L 160.00 332.00 L 163.20 331.60 L 166.40 331.80 L 169.70 332.30 L 172.90 333.30 L 177.60 335.40 L 182.10 338.00 L 190.30 343.90 L 193.10 335.70 L 197.20 328.00 L 200.70 323.30 L 204.70 319.00 L 209.10 315.20 L 213.90 311.80 L 218.90 309.00 L 224.30 306.70 L 227.80 306.40 L 231.00 306.50 L 234.00 307.10 L 236.90 308.10 L 240.50 309.90 L 243.70 312.30 L 246.60 315.30 L 249.20 318.70 L 251.30 322.40 L 253.00 326.40 L 254.30 330.60 L 255.10 334.80 L 255.40 339.10 L 255.20 343.50 L 254.50 347.50 L 253.30 351.40 L 258.90 352.80 L 264.20 354.60 L 271.10 357.90 L 274.30 360.00 L 271.90 354.20 L 268.10 342.40 L 259.60 306.00 L 257.10 297.00 L 254.00 288.20 L 243.70 288.50 L 228.40 290.30 L 223.30 290.60 L 218.20 290.50 L 213.10 289.70 L 212.20 287.40 L 211.80 285.40 L 212.40 281.80 L 214.40 278.30 L 220.30 270.90 L 221.80 268.40 L 221.70 262.40 L 221.10 256.50 L 220.10 250.60 L 218.70 244.70 L 216.80 239.10 L 214.50 233.60 L 211.80 228.20 L 208.70 223.20 L 205.10 218.50 L 201.10 214.10 L 196.70 210.10 L 191.90 206.50 L 189.70 205.00 L 187.40 203.90 L 185.10 203.30 L 181.60 202.90 L 177.80 203.10 L 166.50 204.30 L 160.60 204.10 L 158.60 203.50 L 156.80 202.50 L 155.30 201.10 L 154.00 199.40 L 153.10 197.60 L 152.60 195.50 L 152.50 193.50 L 152.90 191.30 L 155.60 189.50 L 161.50 186.90 L 166.10 185.50 L 185.10 181.10 L 234.40 162.80 L 257.10 155.00 L 279.90 147.70 L 295.20 143.20 L 326.00 135.30 L 341.60 132.00 L 357.30 129.10 L 388.60 124.70 L 404.00 123.10 L 419.50 122.00 L 435.00 121.30 L 450.50 121.00 L 469.90 121.30 L 489.30 122.10 L 508.70 123.50 L 528.00 125.40 L 547.30 127.90 L 566.50 130.80 L 585.60 134.20 L 604.60 138.10 Z M 612.10 141.50 L 614.20 140.50 L 617.40 137.80 L 619.10 135.20 L 620.50 132.10 L 624.80 119.40 L 621.80 122.50 L 619.30 126.00 L 617.10 129.60 L 614.30 135.50 L 612.10 141.50 Z M 186.80 190.00 L 201.90 201.60 L 206.70 205.70 L 212.50 211.80 L 218.50 220.10 L 221.40 225.20 L 223.90 230.50 L 227.70 241.50 L 229.10 247.30 L 230.70 256.00 L 231.80 264.70 L 243.30 254.30 L 255.00 244.20 L 267.10 234.50 L 279.50 225.10 L 292.30 216.10 L 305.30 207.60 L 318.50 199.60 L 332.10 192.10 L 343.20 186.40 L 354.40 181.20 L 365.80 176.30 L 377.30 171.80 L 389.00 167.70 L 400.80 164.10 L 412.80 160.90 L 424.90 158.20 L 437.10 156.00 L 449.60 154.30 L 465.10 152.70 L 480.70 151.60 L 496.30 150.90 L 519.80 151.00 L 543.20 152.70 L 554.80 154.20 L 566.30 156.30 L 577.70 158.90 L 589.10 162.00 L 595.60 152.10 L 596.70 149.40 L 597.20 146.50 L 576.20 142.60 L 555.10 139.20 L 533.90 136.30 L 502.00 133.00 L 470.00 131.30 L 453.90 131.00 L 437.90 131.20 L 421.90 132.00 L 391.60 134.50 L 363.50 138.20 L 349.50 140.60 L 331.00 144.40 L 312.60 148.70 L 294.30 153.50 L 258.00 164.40 L 240.00 170.40 L 213.30 179.90 L 186.80 190.00 Z M 606.90 149.40 L 602.30 158.40 L 598.20 167.70 L 606.90 168.80 L 614.60 150.20 L 606.90 149.40 Z M 621.30 155.80 L 617.10 170.40 L 629.30 176.30 L 641.30 182.80 L 652.90 189.70 L 664.30 197.10 L 675.40 204.90 L 686.10 213.30 L 696.40 222.00 L 706.40 231.30 L 715.90 240.90 L 725.00 251.00 L 733.50 261.50 L 741.70 272.50 L 747.50 281.00 L 753.00 289.80 L 758.20 298.80 L 763.00 308.00 L 767.40 317.40 L 771.50 326.90 L 775.10 336.60 L 778.30 346.40 L 781.10 356.40 L 783.60 366.50 L 785.50 376.70 L 787.10 386.90 L 788.10 397.20 L 788.80 407.50 L 788.90 418.00 L 803.20 412.60 L 810.50 410.20 L 817.80 408.30 L 827.80 406.50 L 840.70 405.60 L 848.50 405.70 L 879.70 407.90 L 875.00 393.70 L 869.70 379.70 L 863.80 366.00 L 857.40 352.50 L 850.40 339.30 L 843.00 326.40 L 835.00 313.80 L 826.50 301.50 L 817.50 289.50 L 808.10 278.00 L 798.20 266.80 L 787.80 256.00 L 777.00 245.70 L 765.80 235.90 L 754.20 226.50 L 742.10 217.70 L 729.50 209.40 L 703.60 193.70 L 690.40 186.30 L 677.00 179.30 L 663.40 172.70 L 649.60 166.60 L 635.50 161.00 L 621.30 155.80 Z M 349.00 193.20 L 335.10 200.30 L 321.40 208.00 L 308.00 216.10 L 295.00 224.70 L 282.20 233.80 L 269.80 243.40 L 260.80 250.90 L 243.50 266.70 L 235.20 275.00 L 237.00 278.90 L 263.50 279.30 L 272.40 279.90 L 284.00 281.50 L 289.80 282.90 L 296.20 284.60 L 302.40 286.80 L 308.50 289.40 L 314.50 292.50 L 320.20 295.90 L 325.60 299.70 L 330.80 303.90 L 335.70 308.40 L 340.30 313.20 L 344.50 318.40 L 348.30 323.70 L 351.70 329.40 L 354.60 335.30 L 357.10 341.40 L 359.10 347.80 L 360.50 354.30 L 396.00 302.30 L 408.70 285.50 L 423.40 268.20 L 431.60 259.10 L 449.00 241.90 L 458.00 233.60 L 467.40 225.70 L 477.00 218.10 L 486.80 210.90 L 496.90 204.00 L 507.20 197.40 L 517.80 191.30 L 528.60 185.60 L 539.60 180.20 L 550.80 175.30 L 562.20 170.90 L 573.80 166.90 L 559.60 164.50 L 545.40 162.60 L 531.10 161.20 L 516.70 160.30 L 502.30 159.90 L 487.90 160.10 L 473.50 160.80 L 459.20 162.10 L 444.90 163.90 L 430.70 166.30 L 416.70 169.30 L 402.80 172.90 L 391.70 176.20 L 380.90 179.80 L 370.10 183.90 L 359.50 188.30 L 349.00 193.20 Z M 404.30 305.90 L 389.00 327.20 L 384.20 334.50 L 378.60 344.60 L 376.20 350.00 L 383.20 347.10 L 390.20 344.60 L 397.30 342.60 L 404.50 341.00 L 414.20 339.50 L 424.00 338.50 L 433.80 338.10 L 453.60 338.60 L 478.40 340.90 L 493.00 342.70 L 524.80 348.50 L 540.60 351.90 L 556.30 355.70 L 571.90 359.90 L 587.40 364.60 L 593.70 366.70 L 605.80 371.60 L 641.40 388.80 L 643.70 375.00 L 645.60 361.00 L 647.20 346.80 L 648.20 332.60 L 648.70 318.30 L 648.60 304.00 L 648.20 293.30 L 647.30 282.60 L 644.40 261.60 L 642.30 251.20 L 639.80 240.90 L 636.70 230.80 L 633.20 220.80 L 629.20 211.00 L 624.70 201.50 L 619.50 192.10 L 613.80 182.90 L 608.70 180.00 L 603.10 177.40 L 599.30 176.10 L 591.40 174.40 L 587.30 174.10 L 583.40 174.30 L 579.50 175.00 L 568.70 178.40 L 558.20 182.10 L 547.90 186.20 L 537.70 190.80 L 527.80 195.70 L 515.60 202.40 L 503.70 209.60 L 492.20 217.30 L 481.00 225.60 L 470.10 234.30 L 459.60 243.40 L 449.40 252.90 L 439.60 262.90 L 430.20 273.20 L 421.10 283.80 L 412.50 294.70 L 404.30 305.90 Z M 626.00 184.80 L 631.10 194.10 L 635.80 203.50 L 640.00 213.10 L 643.60 222.90 L 646.90 232.80 L 649.60 242.90 L 652.00 253.10 L 653.90 263.40 L 655.40 273.70 L 657.30 294.60 L 657.70 305.20 L 657.70 319.20 L 657.10 333.20 L 656.00 347.30 L 654.30 361.20 L 652.20 375.00 L 649.60 388.60 L 662.30 387.10 L 675.00 387.00 L 683.40 387.70 L 691.70 388.90 L 700.10 390.60 L 708.30 392.70 L 724.50 398.00 L 736.40 402.80 L 747.90 408.00 L 760.20 415.00 L 764.10 417.60 L 768.50 421.90 L 770.40 424.40 L 768.10 425.40 L 765.90 425.80 L 764.00 425.70 L 762.10 425.10 L 753.00 419.00 L 745.60 414.60 L 737.80 410.60 L 729.80 407.10 L 721.70 404.00 L 713.40 401.40 L 705.00 399.30 L 696.40 397.50 L 705.90 425.50 L 708.70 434.90 L 709.60 441.70 L 710.00 448.50 L 709.20 476.20 L 709.40 483.00 L 710.10 489.80 L 710.90 494.20 L 713.80 503.10 L 723.90 497.20 L 727.00 495.00 L 729.90 492.40 L 735.60 485.00 L 746.10 467.30 L 750.80 461.80 L 753.50 459.40 L 756.60 457.40 L 762.90 454.70 L 765.80 454.20 L 768.90 454.20 L 778.10 455.00 L 781.00 455.00 L 783.70 454.40 L 785.40 453.70 L 788.40 451.20 L 788.40 447.60 L 787.90 444.00 L 786.90 440.50 L 785.50 437.50 L 784.20 435.60 L 782.70 434.20 L 780.90 433.00 L 778.90 432.20 L 776.60 431.90 L 773.80 432.10 L 771.60 426.90 L 781.10 421.70 L 780.60 411.20 L 779.80 400.80 L 778.50 390.40 L 776.80 380.10 L 774.70 369.80 L 772.10 359.70 L 769.20 349.60 L 765.80 339.70 L 762.10 329.90 L 758.00 320.30 L 753.40 310.90 L 748.50 301.60 L 743.20 292.60 L 737.60 283.80 L 731.60 275.20 L 725.20 266.90 L 715.90 255.90 L 706.20 245.30 L 696.00 235.10 L 679.80 220.70 L 662.80 207.50 L 653.90 201.30 L 635.50 190.00 L 626.00 184.80 Z M 161.40 195.10 L 161.70 196.50 L 163.30 198.40 L 165.10 199.30 L 167.20 199.60 L 169.30 199.30 L 171.10 198.50 L 172.80 196.60 L 173.20 195.20 L 172.80 193.80 L 171.30 191.80 L 169.50 190.90 L 167.40 190.60 L 165.30 190.90 L 163.50 191.70 L 161.80 193.70 L 161.40 195.10 Z M 218.90 279.10 L 218.20 281.70 L 218.10 283.40 L 218.40 284.50 L 219.10 285.20 L 220.20 285.50 L 221.90 285.50 L 224.60 284.80 L 225.30 282.10 L 225.30 280.30 L 225.00 279.20 L 224.30 278.60 L 223.20 278.20 L 221.50 278.30 L 218.90 279.10 Z M 267.70 288.30 L 270.90 301.30 L 279.60 340.50 L 280.80 344.70 L 282.40 348.60 L 288.10 360.20 L 289.60 364.20 L 290.70 369.70 L 291.00 378.30 L 290.60 383.80 L 289.60 389.10 L 288.00 394.20 L 286.10 399.20 L 283.70 404.10 L 277.80 413.20 L 274.30 417.50 L 268.80 423.60 L 262.90 429.20 L 267.70 454.30 L 270.50 466.80 L 273.90 479.20 L 281.70 470.90 L 289.00 462.20 L 295.90 453.20 L 302.30 443.80 L 304.60 439.70 L 308.00 431.20 L 309.80 424.60 L 311.00 417.80 L 311.90 410.90 L 313.50 390.30 L 315.60 373.30 L 317.20 364.90 L 327.90 314.60 L 323.70 310.80 L 314.80 304.10 L 310.00 301.20 L 303.40 297.80 L 296.60 295.00 L 289.60 292.60 L 282.40 290.70 L 275.10 289.20 L 267.70 288.30 Z M 201.20 365.70 L 196.80 364.80 L 195.00 363.90 L 192.60 362.00 L 184.00 352.20 L 179.10 347.90 L 172.90 343.80 L 169.60 342.40 L 165.00 341.40 L 162.80 341.50 L 160.60 341.90 L 158.50 343.00 L 156.50 344.60 L 154.30 346.90 L 152.50 349.40 L 150.10 354.70 L 149.10 358.40 L 148.60 362.40 L 148.50 366.40 L 148.80 372.60 L 151.30 390.70 L 162.90 396.70 L 151.00 395.20 L 147.00 395.10 L 144.40 395.20 L 139.60 396.50 L 137.50 397.80 L 135.60 399.50 L 133.90 402.00 L 132.90 405.20 L 132.50 408.40 L 132.60 411.50 L 133.20 414.50 L 134.20 417.50 L 137.30 423.10 L 141.70 428.10 L 145.50 431.30 L 149.70 434.00 L 155.70 436.60 L 164.60 439.30 L 170.60 440.90 L 176.70 442.00 L 182.90 442.70 L 195.30 442.90 L 201.50 442.40 L 213.90 440.40 L 225.80 436.90 L 231.70 434.70 L 237.40 432.10 L 248.10 425.90 L 258.10 418.40 L 262.70 414.30 L 267.00 409.80 L 271.00 405.00 L 273.00 402.00 L 274.70 398.90 L 276.00 395.70 L 276.80 392.40 L 277.50 387.70 L 277.50 383.10 L 277.00 378.40 L 275.80 373.90 L 274.20 369.50 L 272.00 365.40 L 271.00 365.80 L 263.00 362.50 L 254.80 359.70 L 246.50 357.40 L 237.30 359.30 L 228.10 360.80 L 240.30 352.50 L 242.00 351.00 L 244.50 347.40 L 245.60 344.60 L 246.10 341.60 L 246.10 338.40 L 245.70 335.10 L 243.70 328.80 L 242.10 325.90 L 240.20 323.30 L 238.10 320.90 L 235.60 319.00 L 233.00 317.60 L 230.20 316.70 L 228.10 316.40 L 225.90 316.50 L 223.50 317.10 L 217.80 319.90 L 214.90 321.90 L 210.00 326.50 L 207.30 330.20 L 205.10 334.10 L 203.30 338.30 L 202.00 342.70 L 201.10 347.30 L 200.50 351.90 L 200.40 356.60 L 201.20 365.70 Z M 337.60 323.10 L 332.40 344.20 L 330.10 354.80 L 328.30 365.50 L 328.80 367.70 L 327.70 377.60 L 325.30 414.60 L 323.20 427.70 L 321.50 434.10 L 319.20 440.40 L 316.30 446.60 L 314.10 450.80 L 311.60 454.70 L 304.00 463.70 L 294.10 473.70 L 286.40 482.50 L 281.50 490.50 L 280.90 494.50 L 280.70 498.30 L 281.10 502.20 L 282.20 508.00 L 283.90 513.80 L 287.90 524.90 L 295.50 542.80 L 303.80 560.40 L 308.50 568.90 L 313.50 577.20 L 317.80 583.20 L 322.60 588.70 L 327.80 593.80 L 333.40 598.50 L 339.20 602.90 L 345.30 607.00 L 354.80 612.50 L 364.50 617.60 L 364.90 618.60 L 371.60 622.00 L 385.40 627.80 L 396.00 631.30 L 406.80 634.30 L 417.80 636.70 L 438.10 640.50 L 453.90 642.40 L 466.50 642.70 L 472.70 642.20 L 478.90 641.30 L 485.00 640.00 L 491.00 638.10 L 496.80 635.70 L 502.50 632.60 L 505.60 624.00 L 510.60 601.40 L 515.20 578.70 L 503.40 569.40 L 492.70 559.00 L 488.50 562.20 L 483.90 565.10 L 479.10 567.50 L 474.00 569.40 L 468.90 570.90 L 463.60 572.00 L 458.20 572.60 L 452.80 572.70 L 447.50 572.20 L 442.20 571.30 L 437.20 569.90 L 432.20 567.90 L 425.30 563.80 L 422.10 561.30 L 419.10 558.50 L 416.10 554.90 L 413.40 550.90 L 411.00 546.50 L 409.10 542.00 L 408.20 538.90 L 407.60 532.60 L 407.90 529.60 L 408.80 526.50 L 410.10 523.50 L 414.90 539.80 L 417.00 545.00 L 418.70 548.30 L 420.90 551.40 L 423.40 554.20 L 426.60 556.90 L 429.90 559.20 L 433.40 561.20 L 437.20 562.80 L 442.40 564.40 L 447.70 565.40 L 453.20 565.70 L 458.70 565.50 L 464.10 564.70 L 469.30 563.20 L 476.80 560.00 L 483.60 555.50 L 485.50 553.50 L 488.30 549.30 L 489.70 545.80 L 490.70 542.10 L 492.50 526.70 L 487.20 523.00 L 482.30 518.90 L 473.30 509.90 L 465.20 500.00 L 454.20 484.20 L 457.30 481.10 L 460.60 478.30 L 464.00 476.00 L 467.60 474.10 L 472.60 471.90 L 477.90 470.40 L 483.30 469.30 L 488.90 468.70 L 494.60 468.50 L 500.40 468.70 L 511.80 470.20 L 525.70 473.40 L 533.30 475.90 L 534.90 466.00 L 540.00 440.90 L 554.50 365.50 L 534.60 360.80 L 514.50 356.50 L 487.50 351.90 L 460.40 348.60 L 446.70 347.60 L 433.00 347.00 L 440.60 354.50 L 447.10 363.10 L 452.30 372.60 L 456.00 382.60 L 457.30 387.80 L 458.10 393.10 L 458.40 398.30 L 458.30 403.60 L 457.70 408.80 L 456.60 414.00 L 454.90 419.10 L 452.60 424.10 L 452.20 396.40 L 451.00 387.30 L 449.90 382.80 L 445.60 373.70 L 442.90 369.30 L 439.90 365.20 L 436.50 361.30 L 432.80 357.80 L 428.90 354.70 L 424.60 352.00 L 420.00 349.70 L 416.40 349.10 L 412.80 348.90 L 409.40 349.10 L 404.20 350.00 L 399.20 351.60 L 394.20 353.60 L 379.90 360.50 L 367.00 362.40 L 360.60 363.90 L 354.50 365.80 L 349.10 343.00 L 346.50 335.70 L 342.90 329.00 L 340.50 326.00 L 337.60 323.10 Z M 562.90 368.90 L 556.40 401.40 L 550.20 434.00 L 527.30 564.60 L 514.80 629.70 L 519.90 629.50 L 521.50 616.30 L 523.60 603.10 L 531.10 563.90 L 540.80 505.50 L 549.00 460.30 L 554.70 430.30 L 567.10 370.30 L 562.90 368.90 Z M 577.00 371.30 L 561.20 451.00 L 556.50 477.70 L 545.00 548.20 L 540.90 571.70 L 551.40 570.50 L 556.60 569.50 L 561.60 568.10 L 568.00 565.20 L 570.90 563.20 L 573.40 561.10 L 575.50 558.70 L 577.30 556.10 L 585.80 538.90 L 586.10 547.00 L 585.60 551.10 L 584.60 555.10 L 582.30 559.90 L 580.50 562.10 L 576.80 565.50 L 572.70 568.30 L 568.40 570.50 L 559.00 573.80 L 546.70 576.00 L 539.40 576.80 L 534.80 600.60 L 530.80 624.50 L 548.80 628.00 L 549.30 628.80 L 576.00 643.80 L 586.80 642.50 L 597.60 640.80 L 608.40 638.60 L 619.00 635.90 L 629.50 632.60 L 639.80 628.70 L 647.30 625.50 L 654.60 621.80 L 661.70 617.80 L 668.60 613.50 L 675.30 608.70 L 681.60 603.60 L 687.60 598.00 L 693.40 592.00 L 697.30 586.80 L 700.90 581.20 L 704.00 575.40 L 706.70 569.30 L 708.90 563.00 L 710.50 556.60 L 711.70 550.10 L 712.30 543.50 L 712.30 536.90 L 711.90 532.00 L 710.00 522.40 L 708.50 517.60 L 706.50 514.60 L 697.50 503.20 L 695.70 500.20 L 694.30 496.90 L 693.40 493.30 L 692.10 493.00 L 691.50 480.40 L 691.70 474.10 L 694.40 445.30 L 695.10 429.50 L 694.30 416.90 L 693.10 410.80 L 691.40 404.60 L 688.90 398.50 L 686.90 398.90 L 680.90 397.40 L 674.90 396.60 L 668.80 396.40 L 656.50 397.30 L 650.50 398.30 L 648.50 408.30 L 648.00 409.80 L 646.20 411.90 L 645.00 412.40 L 643.40 412.60 L 641.20 412.40 L 637.80 412.60 L 634.70 412.20 L 632.00 411.30 L 629.40 409.90 L 627.10 408.10 L 625.20 405.90 L 623.50 403.40 L 622.30 400.70 L 621.40 397.80 L 620.90 394.80 L 620.90 391.70 L 621.30 388.60 L 610.50 383.60 L 599.40 379.20 L 577.00 371.30 Z M 631.30 396.00 L 630.50 398.30 L 630.50 400.20 L 630.80 401.70 L 631.70 402.90 L 632.90 403.90 L 636.20 404.90 L 640.30 404.50 L 641.10 402.60 L 641.40 399.80 L 641.10 398.60 L 639.60 396.80 L 637.90 395.90 L 635.80 395.40 L 633.60 395.50 L 631.30 396.00 Z M 887.80 420.90 L 887.40 423.50 L 887.60 425.10 L 888.20 426.10 L 889.20 426.70 L 890.90 426.90 L 893.40 426.40 L 893.70 423.80 L 893.50 422.20 L 892.90 421.20 L 891.90 420.60 L 890.30 420.40 L 887.80 420.90 Z M 247.30 437.60 L 225.30 445.00 L 210.40 449.00 L 202.80 450.40 L 185.50 451.60 L 195.70 539.00 L 201.40 582.60 L 202.80 590.00 L 204.70 597.30 L 206.90 604.40 L 209.60 611.50 L 212.70 618.30 L 216.20 624.90 L 220.10 631.30 L 224.60 637.30 L 297.70 720.20 L 299.80 723.20 L 302.20 725.90 L 307.70 730.40 L 313.70 734.50 L 313.40 738.90 L 308.50 740.90 L 307.50 750.40 L 301.50 788.70 L 300.30 804.60 L 300.90 817.50 L 308.60 809.20 L 311.80 803.80 L 315.30 798.70 L 319.10 793.80 L 323.30 789.10 L 327.70 784.80 L 332.50 780.90 L 337.60 777.30 L 343.00 774.10 L 343.00 773.40 L 350.00 771.40 L 357.20 770.10 L 364.40 769.30 L 371.70 769.10 L 378.90 769.50 L 386.10 770.60 L 391.40 771.70 L 401.70 775.10 L 406.70 777.30 L 413.40 781.40 L 420.70 787.80 L 432.80 800.60 L 432.80 801.30 L 444.30 815.70 L 446.70 819.60 L 448.50 823.70 L 450.00 829.50 L 450.20 832.70 L 450.20 836.80 L 449.60 840.80 L 447.20 848.60 L 444.10 856.20 L 454.70 858.50 L 465.40 860.10 L 476.10 861.10 L 486.90 861.60 L 497.70 861.60 L 508.50 861.20 L 519.30 860.40 L 540.70 857.80 L 538.70 852.60 L 537.20 847.30 L 536.10 842.00 L 535.60 836.50 L 535.50 831.00 L 536.00 825.40 L 537.90 819.00 L 540.30 812.70 L 543.10 806.50 L 547.70 797.50 L 552.70 788.60 L 540.10 775.70 L 531.60 778.50 L 522.90 780.50 L 522.50 785.10 L 520.40 785.10 L 520.10 778.70 L 508.40 776.20 L 502.70 774.40 L 497.30 772.00 L 500.40 761.90 L 505.90 747.00 L 508.00 738.50 L 508.40 731.20 L 503.60 728.90 L 499.00 726.10 L 496.00 724.00 L 490.80 719.10 L 488.50 716.40 L 486.70 713.40 L 485.10 710.30 L 484.10 707.00 L 483.50 703.50 L 483.40 699.60 L 479.50 698.20 L 475.80 696.20 L 472.30 693.80 L 469.10 691.10 L 466.20 688.00 L 463.60 684.60 L 461.50 680.90 L 459.80 677.10 L 458.60 673.20 L 457.90 669.10 L 457.70 665.10 L 458.20 661.00 L 458.90 658.10 L 461.60 652.30 L 463.60 649.50 L 448.80 648.80 L 409.70 644.10 L 400.20 642.30 L 390.80 639.90 L 381.50 636.90 L 372.50 633.50 L 363.60 629.50 L 355.00 625.10 L 346.60 620.20 L 338.60 614.80 L 330.80 609.00 L 323.40 602.80 L 316.30 596.10 L 309.90 588.30 L 304.10 580.20 L 298.80 571.80 L 289.40 554.20 L 285.10 545.10 L 279.30 531.20 L 263.00 489.20 L 259.30 475.10 L 256.20 460.80 L 252.90 441.60 L 251.60 432.00 L 247.30 437.60 Z M 482.90 479.80 L 481.00 480.20 L 479.40 481.10 L 478.00 482.40 L 474.50 487.00 L 481.40 485.60 L 488.30 484.70 L 495.20 484.30 L 502.20 484.30 L 511.40 485.00 L 520.60 486.20 L 529.80 488.10 L 525.10 485.20 L 520.20 483.00 L 515.10 481.30 L 509.90 480.10 L 504.50 479.30 L 499.10 479.00 L 493.60 479.00 L 482.90 479.80 Z M 499.00 527.50 L 498.80 539.00 L 499.00 550.60 L 500.10 553.30 L 501.50 555.90 L 503.30 558.10 L 506.40 561.20 L 510.00 564.00 L 517.40 568.90 L 520.20 555.30 L 527.40 514.30 L 520.60 518.30 L 513.60 521.80 L 506.40 524.90 L 499.00 527.50 Z M 516.50 637.90 L 511.40 639.20 L 506.40 641.10 L 501.60 643.30 L 497.10 646.00 L 489.20 659.30 L 484.80 665.70 L 480.10 671.80 L 479.30 669.30 L 479.00 667.10 L 479.20 665.10 L 480.60 661.20 L 483.80 656.90 L 494.10 647.70 L 496.20 645.40 L 487.30 648.30 L 482.80 650.00 L 475.80 653.80 L 471.00 657.80 L 469.10 660.20 L 467.50 662.80 L 466.20 665.90 L 466.30 669.00 L 466.80 671.80 L 467.80 674.50 L 470.70 679.20 L 472.60 681.40 L 475.90 684.20 L 479.70 686.60 L 483.60 688.50 L 487.70 689.90 L 481.90 676.30 L 497.60 668.80 L 502.90 666.60 L 508.30 664.80 L 514.00 663.50 L 504.40 669.70 L 499.90 673.20 L 495.90 677.10 L 493.50 680.00 L 491.50 683.30 L 489.90 686.80 L 501.90 685.20 L 513.80 682.40 L 496.90 690.40 L 497.80 693.00 L 498.30 695.90 L 498.30 707.80 L 498.70 710.60 L 499.60 713.20 L 501.70 716.10 L 505.50 719.00 L 507.60 720.00 L 509.80 720.60 L 513.40 721.00 L 517.10 720.90 L 528.50 719.30 L 534.30 719.40 L 538.50 720.80 L 540.30 722.10 L 542.00 723.90 L 543.60 726.30 L 553.40 719.00 L 556.00 717.40 L 558.70 716.20 L 562.60 715.50 L 571.50 716.40 L 598.60 721.90 L 605.30 722.60 L 614.50 722.50 L 623.10 721.20 L 627.00 720.00 L 630.80 718.20 L 634.20 716.00 L 637.30 713.40 L 640.00 710.30 L 641.70 707.80 L 644.10 702.20 L 644.90 699.10 L 645.70 692.80 L 646.00 686.50 L 645.80 680.10 L 645.10 673.70 L 643.90 667.50 L 642.20 661.40 L 640.00 655.40 L 637.30 649.60 L 634.20 644.10 L 616.60 646.90 L 581.60 654.50 L 585.90 660.20 L 588.80 666.70 L 590.70 669.60 L 594.00 673.80 L 597.70 677.60 L 605.60 684.70 L 593.90 685.30 L 588.10 681.10 L 585.70 678.70 L 582.50 674.70 L 571.40 656.70 L 568.30 652.40 L 563.60 647.40 L 557.50 642.90 L 554.20 640.90 L 550.70 639.40 L 543.40 637.40 L 539.60 636.90 L 533.80 636.60 L 528.00 636.70 L 516.50 637.90 Z M 644.10 639.50 L 647.70 648.20 L 652.80 663.30 L 655.60 675.70 L 656.40 682.00 L 656.60 688.20 L 656.30 694.40 L 655.70 699.00 L 654.60 703.60 L 653.10 708.10 L 649.80 715.60 L 648.30 718.10 L 646.40 720.30 L 643.10 723.20 L 639.40 725.60 L 635.50 727.70 L 623.30 733.40 L 609.40 734.40 L 595.60 733.80 L 581.90 731.70 L 575.20 730.10 L 566.20 727.40 L 561.90 726.90 L 558.60 727.30 L 555.40 728.10 L 542.80 733.00 L 540.40 732.40 L 539.00 742.20 L 538.10 752.10 L 537.50 762.10 L 542.90 766.60 L 547.80 771.50 L 552.40 776.70 L 556.50 782.30 L 561.30 777.10 L 566.40 772.30 L 571.80 768.00 L 577.50 764.00 L 583.40 760.40 L 589.60 757.20 L 596.00 754.50 L 602.70 752.20 L 632.60 751.60 L 655.00 763.30 L 662.70 737.00 L 664.80 728.10 L 666.50 719.10 L 667.50 710.10 L 667.80 704.10 L 667.30 691.90 L 666.00 684.50 L 662.50 670.10 L 660.20 663.00 L 654.70 649.20 L 653.60 646.80 L 652.30 644.80 L 650.60 643.10 L 646.50 640.40 L 644.10 639.50 Z M 517.90 728.60 L 517.30 738.00 L 516.20 747.40 L 513.80 759.70 L 512.10 765.80 L 527.20 766.60 L 531.80 729.40 L 517.90 728.60 Z M 673.30 749.70 L 662.20 771.10 L 663.80 769.50 L 666.60 774.50 L 668.90 779.70 L 675.80 801.40 L 677.70 806.80 L 680.00 812.00 L 678.90 819.60 L 678.50 827.40 L 683.10 817.70 L 686.30 807.30 L 687.80 800.30 L 688.70 793.10 L 689.10 785.90 L 688.10 775.70 L 687.10 770.50 L 684.40 762.40 L 681.00 756.60 L 678.80 754.00 L 676.20 751.70 L 673.30 749.70 Z M 561.80 801.90 L 571.60 801.20 L 583.80 805.00 L 589.80 807.20 L 595.50 809.90 L 599.10 812.10 L 602.40 814.70 L 605.50 817.80 L 588.90 813.70 L 572.30 810.10 L 561.00 815.40 L 556.70 815.60 L 559.10 813.30 L 560.20 811.60 L 561.50 808.10 L 561.50 806.50 L 561.10 805.70 L 559.30 804.40 L 557.10 805.50 L 555.00 807.10 L 553.20 809.00 L 551.80 811.20 L 550.70 813.50 L 550.20 815.90 L 548.60 819.00 L 547.40 822.20 L 546.60 825.50 L 546.20 828.90 L 546.20 833.50 L 546.80 838.00 L 548.10 842.50 L 549.90 846.70 L 552.20 850.60 L 555.10 854.20 L 557.60 856.60 L 560.30 858.60 L 563.20 860.40 L 566.50 861.80 L 569.80 843.80 L 573.20 844.00 L 573.60 853.30 L 574.80 862.60 L 576.70 865.60 L 578.90 868.10 L 581.60 870.20 L 584.50 871.90 L 587.70 873.20 L 591.10 874.20 L 594.50 874.80 L 601.30 875.20 L 607.70 874.70 L 614.10 873.80 L 620.40 872.50 L 626.60 870.80 L 632.80 868.70 L 638.70 866.20 L 644.40 863.30 L 649.90 860.00 L 655.20 856.30 L 660.10 852.20 L 664.80 847.80 L 669.10 842.90 L 672.90 837.70 L 674.60 834.80 L 675.60 831.90 L 675.90 829.90 L 675.70 827.80 L 672.30 816.50 L 665.90 798.60 L 662.20 789.90 L 655.30 781.00 L 651.40 776.80 L 647.20 773.10 L 641.00 769.00 L 633.10 765.80 L 628.70 764.70 L 624.10 763.90 L 619.50 763.50 L 613.20 763.60 L 607.10 764.30 L 601.00 765.60 L 595.00 767.50 L 589.40 770.00 L 584.00 773.10 L 580.10 775.80 L 573.30 781.90 L 570.30 785.40 L 567.60 789.10 L 565.30 793.10 L 563.30 797.40 L 561.80 801.90 Z M 337.60 790.00 L 330.80 796.00 L 327.40 799.40 L 324.40 803.10 L 322.80 805.70 L 321.60 808.30 L 320.90 811.00 L 320.70 813.10 L 321.50 817.40 L 322.60 819.70 L 324.70 814.70 L 327.30 810.00 L 330.40 805.80 L 333.90 801.90 L 337.80 798.30 L 342.10 795.20 L 346.70 792.50 L 351.50 790.10 L 356.60 788.20 L 361.80 786.80 L 367.00 785.70 L 372.40 785.10 L 377.70 785.00 L 383.00 785.40 L 388.30 786.20 L 374.40 786.40 L 367.50 787.00 L 360.80 788.30 L 356.40 789.50 L 352.10 791.20 L 348.00 793.30 L 340.10 798.30 L 336.30 801.20 L 332.90 804.40 L 330.90 806.70 L 327.70 811.80 L 326.60 814.60 L 325.90 817.60 L 325.60 820.90 L 314.70 817.10 L 301.10 829.80 L 303.00 833.70 L 307.90 840.80 L 310.70 844.00 L 314.90 847.90 L 319.40 851.50 L 324.20 854.70 L 331.80 859.00 L 339.50 862.80 L 345.50 865.20 L 351.60 867.10 L 357.80 868.40 L 364.10 869.30 L 370.50 869.80 L 376.90 869.90 L 389.70 868.90 L 396.10 867.90 L 405.50 865.90 L 414.70 863.30 L 418.70 861.80 L 422.40 860.00 L 425.80 857.60 L 429.00 854.90 L 431.80 851.80 L 434.20 848.40 L 436.10 844.80 L 437.40 840.80 L 438.20 836.60 L 438.60 833.70 L 438.60 831.00 L 438.20 828.30 L 437.00 824.50 L 435.20 820.80 L 430.50 813.90 L 425.30 807.50 L 420.80 818.70 L 418.00 824.20 L 414.60 829.20 L 412.10 832.30 L 406.30 837.70 L 402.90 839.80 L 399.30 841.60 L 395.30 842.90 L 404.90 830.60 L 409.90 823.60 L 412.80 817.50 L 413.80 814.30 L 414.40 810.90 L 414.60 804.60 L 414.30 802.00 L 413.70 799.40 L 411.40 794.80 L 409.70 792.70 L 405.80 789.20 L 403.50 787.90 L 398.20 785.80 L 387.10 782.40 L 381.40 781.20 L 375.60 780.30 L 369.90 779.90 L 364.10 780.00 L 358.50 780.70 L 352.90 782.00 L 348.90 783.30 L 345.00 785.10 L 341.30 787.30 L 337.60 790.00 Z" fill="#262234" fill-rule="nonzero" node-id="114" stroke="none" target-height="774.5" target-width="778.5" target-x="123" target-y="112"></path><path d="M 349.00 193.20 L 359.50 188.30 L 370.10 183.90 L 380.90 179.80 L 391.70 176.20 L 402.80 172.90 L 416.70 169.30 L 430.70 166.30 L 444.90 163.90 L 459.20 162.10 L 473.50 160.80 L 487.90 160.10 L 502.30 159.90 L 516.70 160.30 L 531.10 161.20 L 545.40 162.60 L 559.60 164.50 L 573.80 166.90 L 562.20 170.90 L 550.80 175.30 L 539.60 180.20 L 528.60 185.60 L 517.80 191.30 L 507.20 197.40 L 496.90 204.00 L 486.80 210.90 L 477.00 218.10 L 467.40 225.70 L 458.00 233.60 L 449.00 241.90 L 431.60 259.10 L 423.40 268.20 L 408.70 285.50 L 396.00 302.30 L 360.50 354.30 L 359.10 347.80 L 357.10 341.40 L 354.60 335.30 L 351.70 329.40 L 348.30 323.70 L 344.50 318.40 L 340.30 313.20 L 335.70 308.40 L 330.80 303.90 L 325.60 299.70 L 320.20 295.90 L 314.50 292.50 L 308.50 289.40 L 302.40 286.80 L 296.20 284.60 L 289.80 282.90 L 284.00 281.50 L 272.40 279.90 L 263.50 279.30 L 237.00 278.90 L 235.20 275.00 L 243.50 266.70 L 260.80 250.90 L 269.80 243.40 L 282.20 233.80 L 295.00 224.70 L 308.00 216.10 L 321.40 208.00 L 335.10 200.30 L 349.00 193.20 Z" fill="#faf5ba" fill-rule="nonzero" node-id="116" stroke="none" target-height="194.4" target-width="338.59998" target-x="235.2" target-y="159.9"></path><path d="M 696.30 822.00 L 697.30 819.80 L 698.50 818.20 L 699.90 817.30 L 703.30 816.40 L 708.50 816.80 L 717.50 818.50 L 733.40 822.50 L 741.30 825.00 L 754.10 830.20 L 763.70 835.50 L 768.10 838.60 L 772.30 842.10 L 776.30 846.00 L 777.90 848.80 L 778.80 851.40 L 779.10 854.00 L 778.80 856.60 L 778.10 859.10 L 776.90 861.60 L 773.50 866.10 L 771.40 868.10 L 768.00 870.70 L 756.50 876.60 L 748.40 880.10 L 740.20 883.20 L 723.40 888.30 L 701.90 893.20 L 662.90 900.40 L 638.30 903.60 L 613.60 906.30 L 588.90 908.40 L 564.20 910.00 L 539.40 911.10 L 514.60 911.80 L 489.80 912.00 L 465.00 911.70 L 440.20 911.00 L 415.40 909.90 L 390.60 908.40 L 365.90 906.40 L 345.00 904.10 L 324.10 901.20 L 310.20 898.90 L 296.40 896.30 L 282.70 893.20 L 269.20 889.60 L 255.70 885.50 L 242.50 880.90 L 238.80 879.40 L 235.00 877.50 L 231.40 875.10 L 226.10 870.30 L 222.90 865.90 L 221.90 863.50 L 221.20 861.00 L 220.90 858.40 L 221.20 855.80 L 221.90 853.10 L 223.30 850.20 L 227.70 845.70 L 232.40 841.80 L 237.50 838.30 L 242.80 835.30 L 248.40 832.60 L 254.20 830.30 L 263.10 827.40 L 272.30 825.10 L 290.50 821.70 L 291.00 826.30 L 291.90 830.60 L 293.20 834.70 L 295.00 838.50 L 297.90 843.40 L 301.30 847.90 L 305.30 852.20 L 309.70 856.10 L 319.20 863.10 L 326.80 867.80 L 334.30 871.90 L 344.50 876.50 L 349.80 878.20 L 355.10 879.50 L 362.30 880.80 L 369.60 881.40 L 377.00 881.50 L 384.40 881.20 L 391.80 880.40 L 406.40 877.60 L 413.60 875.80 L 424.80 872.30 L 428.90 871.50 L 433.00 871.10 L 439.30 871.20 L 445.60 871.80 L 464.60 874.80 L 470.80 875.30 L 484.70 875.70 L 498.60 875.60 L 512.50 874.90 L 526.40 873.90 L 554.00 871.00 L 559.90 874.60 L 565.90 877.70 L 572.20 880.50 L 578.60 882.80 L 585.10 884.50 L 591.80 885.80 L 601.90 886.50 L 607.00 886.40 L 619.30 885.00 L 626.10 883.70 L 632.70 881.90 L 639.20 879.50 L 645.40 876.60 L 651.50 873.30 L 657.30 869.60 L 662.80 865.50 L 668.10 861.00 L 673.10 856.20 L 677.80 851.10 L 682.20 845.70 L 686.30 840.00 L 690.00 834.20 L 696.30 822.00 Z" fill="#b2c394" fill-rule="nonzero" node-id="118" stroke="none" target-height="95.599976" target-width="558.19995" target-x="220.9" target-y="816.4"></path><path d="M 186.80 190.00 L 213.30 179.90 L 240.00 170.40 L 258.00 164.40 L 294.30 153.50 L 312.60 148.70 L 331.00 144.40 L 349.50 140.60 L 377.50 136.10 L 391.60 134.50 L 421.90 132.00 L 437.90 131.20 L 453.90 131.00 L 470.00 131.30 L 486.00 131.90 L 517.90 134.50 L 533.90 136.30 L 555.10 139.20 L 576.20 142.60 L 597.20 146.50 L 596.70 149.40 L 595.60 152.10 L 589.10 162.00 L 577.70 158.90 L 566.30 156.30 L 554.80 154.20 L 543.20 152.70 L 519.80 151.00 L 496.30 150.90 L 480.70 151.60 L 465.10 152.70 L 449.60 154.30 L 437.10 156.00 L 424.90 158.20 L 412.80 160.90 L 400.80 164.10 L 389.00 167.70 L 377.30 171.80 L 365.80 176.30 L 354.40 181.20 L 343.20 186.40 L 332.10 192.10 L 318.50 199.60 L 305.30 207.60 L 292.30 216.10 L 279.50 225.10 L 267.10 234.50 L 255.00 244.20 L 243.30 254.30 L 231.80 264.70 L 230.70 256.00 L 229.10 247.30 L 227.70 241.50 L 223.90 230.50 L 221.40 225.20 L 218.50 220.10 L 212.50 211.80 L 206.70 205.70 L 201.90 201.60 L 186.80 190.00 Z" fill="#d53e59" fill-rule="nonzero" node-id="120" stroke="none" target-height="133.70001" target-width="410.40002" target-x="186.8" target-y="131"></path><path d="M 621.30 155.80 L 635.50 161.00 L 649.60 166.60 L 663.40 172.70 L 677.00 179.30 L 690.40 186.30 L 716.60 201.40 L 742.10 217.70 L 754.20 226.50 L 765.80 235.90 L 777.00 245.70 L 787.80 256.00 L 798.20 266.80 L 808.10 278.00 L 817.50 289.50 L 826.50 301.50 L 835.00 313.80 L 843.00 326.40 L 850.40 339.30 L 857.40 352.50 L 863.80 366.00 L 869.70 379.70 L 875.00 393.70 L 879.70 407.90 L 848.50 405.70 L 840.70 405.60 L 827.80 406.50 L 817.80 408.30 L 810.50 410.20 L 803.20 412.60 L 788.90 418.00 L 788.80 407.50 L 788.10 397.20 L 787.10 386.90 L 785.50 376.70 L 783.60 366.50 L 781.10 356.40 L 778.30 346.40 L 775.10 336.60 L 771.50 326.90 L 767.40 317.40 L 763.00 308.00 L 758.20 298.80 L 753.00 289.80 L 747.50 281.00 L 741.70 272.50 L 733.50 261.50 L 725.00 251.00 L 715.90 240.90 L 706.40 231.30 L 696.40 222.00 L 686.10 213.30 L 675.40 204.90 L 664.30 197.10 L 652.90 189.70 L 641.30 182.80 L 629.30 176.30 L 617.10 170.40 L 621.30 155.80 Z" fill="#d83f59" fill-rule="nonzero" node-id="122" stroke="none" target-height="262.2" target-width="262.60004" target-x="617.1" target-y="155.8"></path><path d="M 404.30 305.90 L 412.50 294.70 L 421.10 283.80 L 430.20 273.20 L 439.60 262.90 L 449.40 252.90 L 459.60 243.40 L 470.10 234.30 L 481.00 225.60 L 492.20 217.30 L 503.70 209.60 L 515.60 202.40 L 527.80 195.70 L 537.70 190.80 L 547.90 186.20 L 558.20 182.10 L 568.70 178.40 L 579.50 175.00 L 583.40 174.30 L 587.30 174.10 L 591.40 174.40 L 599.30 176.10 L 603.10 177.40 L 608.70 180.00 L 613.80 182.90 L 619.50 192.10 L 624.70 201.50 L 629.20 211.00 L 633.20 220.80 L 636.70 230.80 L 639.80 240.90 L 642.30 251.20 L 644.40 261.60 L 647.30 282.60 L 648.20 293.30 L 648.60 304.00 L 648.70 318.30 L 648.20 332.60 L 647.20 346.80 L 645.60 361.00 L 643.70 375.00 L 641.40 388.80 L 605.80 371.60 L 593.70 366.70 L 587.40 364.60 L 571.90 359.90 L 556.30 355.70 L 540.60 351.90 L 508.90 345.40 L 493.00 342.80 L 478.40 340.90 L 453.60 338.60 L 433.80 338.10 L 424.00 338.50 L 414.20 339.50 L 404.50 341.00 L 397.30 342.60 L 390.20 344.60 L 383.20 347.10 L 376.20 350.00 L 378.60 344.60 L 384.20 334.50 L 389.00 327.20 L 404.30 305.90 Z" fill="#d93c58" fill-rule="nonzero" node-id="124" stroke="none" target-height="214.69998" target-width="272.5" target-x="376.2" target-y="174.1"></path><path d="M 267.70 288.30 L 275.10 289.20 L 282.40 290.70 L 289.60 292.60 L 296.60 295.00 L 303.40 297.80 L 310.00 301.20 L 314.80 304.10 L 323.70 310.80 L 327.90 314.60 L 317.20 364.90 L 315.60 373.30 L 313.50 390.30 L 311.90 410.90 L 311.00 417.80 L 309.80 424.60 L 308.00 431.20 L 304.60 439.70 L 302.30 443.80 L 295.90 453.20 L 289.00 462.20 L 281.70 470.90 L 273.90 479.20 L 270.50 466.80 L 267.70 454.30 L 262.90 429.20 L 268.80 423.60 L 274.30 417.50 L 277.80 413.20 L 283.70 404.10 L 286.10 399.20 L 288.00 394.20 L 289.60 389.10 L 290.60 383.80 L 291.00 378.30 L 290.70 369.70 L 289.60 364.20 L 288.10 360.20 L 282.40 348.60 L 280.80 344.70 L 279.60 340.50 L 270.90 301.30 L 267.70 288.30 Z" fill="#fcfbfb" fill-rule="nonzero" node-id="126" stroke="none" target-height="190.90002" target-width="65" target-x="262.9" target-y="288.3"></path><path d="M 201.20 365.70 L 200.40 356.60 L 200.50 351.90 L 201.10 347.20 L 202.00 342.70 L 203.30 338.30 L 205.10 334.10 L 207.30 330.20 L 210.00 326.50 L 214.90 321.90 L 217.80 319.90 L 223.50 317.10 L 225.90 316.50 L 228.10 316.40 L 230.20 316.70 L 233.00 317.60 L 235.60 319.00 L 238.10 320.90 L 240.20 323.30 L 242.10 325.90 L 243.70 328.80 L 245.70 335.10 L 246.10 338.40 L 246.10 341.60 L 245.60 344.60 L 244.50 347.40 L 242.00 351.00 L 240.30 352.50 L 228.10 360.80 L 237.30 359.30 L 246.50 357.40 L 254.80 359.70 L 263.00 362.50 L 271.00 365.80 L 254.30 373.30 L 246.00 377.40 L 238.00 381.90 L 250.60 382.50 L 235.40 392.50 L 223.50 396.30 L 217.40 397.60 L 211.20 398.40 L 207.10 398.50 L 202.90 398.30 L 196.50 397.10 L 192.70 394.90 L 183.50 385.30 L 182.40 387.00 L 181.60 390.40 L 182.10 393.90 L 182.80 395.50 L 184.20 397.80 L 186.20 399.80 L 188.50 401.40 L 191.00 402.50 L 196.00 403.80 L 200.90 404.50 L 211.00 404.60 L 221.20 403.40 L 236.10 400.40 L 245.30 416.30 L 241.50 419.30 L 233.70 424.00 L 224.10 427.90 L 218.50 429.60 L 212.60 430.80 L 203.70 432.20 L 176.40 434.70 L 167.40 435.80 L 158.60 437.40 L 152.70 435.40 L 149.70 434.00 L 145.50 431.30 L 141.70 428.10 L 139.30 425.70 L 135.60 420.40 L 134.20 417.50 L 133.20 414.50 L 132.60 411.50 L 132.50 408.40 L 132.90 405.20 L 133.90 402.00 L 135.60 399.50 L 137.50 397.80 L 139.60 396.50 L 144.40 395.20 L 147.00 395.10 L 151.00 395.20 L 162.90 396.70 L 151.30 390.70 L 148.80 372.60 L 148.50 366.40 L 148.60 362.40 L 149.10 358.40 L 150.10 354.70 L 152.50 349.40 L 156.50 344.60 L 158.50 343.00 L 160.60 341.90 L 162.80 341.50 L 165.00 341.40 L 169.60 342.40 L 172.90 343.80 L 176.10 345.80 L 181.70 350.10 L 184.00 352.20 L 192.60 362.00 L 195.00 363.90 L 198.90 365.50 L 201.20 365.70 Z M 160.80 414.20 L 160.50 415.90 L 160.90 419.00 L 161.70 421.10 L 165.70 427.10 L 171.10 411.20 L 167.00 410.60 L 165.10 410.70 L 163.30 411.20 L 161.50 412.80 L 160.80 414.20 Z" fill="#f9f9fa" fill-rule="nonzero" node-id="128" stroke="none" target-height="121" target-width="138.5" target-x="132.5" target-y="316.4"></path><path d="M 337.60 323.10 L 340.50 326.00 L 342.90 329.00 L 346.50 335.70 L 349.10 343.00 L 354.40 365.80 L 360.60 363.90 L 367.00 362.40 L 379.90 360.50 L 394.20 353.60 L 399.20 351.60 L 404.20 350.00 L 409.40 349.10 L 412.80 348.90 L 416.40 349.10 L 420.00 349.70 L 424.60 352.00 L 428.90 354.70 L 432.80 357.80 L 436.50 361.30 L 439.90 365.20 L 442.90 369.30 L 445.60 373.70 L 449.90 382.80 L 451.00 387.30 L 452.20 396.40 L 452.60 424.10 L 454.90 419.10 L 456.60 414.00 L 457.70 408.80 L 458.30 403.60 L 458.40 398.30 L 458.10 393.10 L 457.30 387.80 L 456.00 382.60 L 452.30 372.60 L 447.10 363.10 L 440.60 354.50 L 433.00 347.00 L 446.70 347.60 L 460.40 348.60 L 487.50 351.90 L 514.50 356.50 L 534.60 360.80 L 554.50 365.50 L 540.00 440.90 L 534.90 466.00 L 525.40 464.00 L 515.80 462.50 L 506.20 461.40 L 496.50 460.80 L 486.70 460.70 L 477.00 460.90 L 467.30 461.60 L 448.00 464.20 L 438.50 466.00 L 419.70 470.80 L 422.50 459.30 L 415.60 451.90 L 411.90 448.40 L 407.90 445.30 L 402.10 442.00 L 398.80 440.90 L 393.60 439.70 L 388.30 439.00 L 383.10 438.90 L 377.80 439.30 L 372.60 440.10 L 367.50 441.50 L 362.60 443.30 L 357.80 445.50 L 353.20 448.20 L 348.90 451.30 L 344.90 454.70 L 341.10 458.50 L 327.20 437.60 L 330.40 414.40 L 331.50 398.70 L 331.50 390.90 L 331.20 383.10 L 330.30 375.40 L 328.30 365.50 L 330.10 354.80 L 332.40 344.20 L 337.60 323.10 Z M 355.40 404.70 L 368.90 395.20 L 373.60 392.50 L 376.90 391.10 L 380.40 390.00 L 388.50 388.80 L 397.70 388.80 L 402.30 389.30 L 406.80 390.20 L 411.20 391.50 L 415.40 393.30 L 419.30 395.50 L 422.90 398.10 L 427.60 402.90 L 429.50 405.70 L 433.40 413.20 L 436.00 426.40 L 437.00 429.90 L 439.20 434.00 L 440.90 435.90 L 441.50 425.60 L 441.40 420.40 L 440.80 415.30 L 439.00 408.80 L 435.70 401.80 L 433.40 398.30 L 430.70 395.10 L 427.70 392.30 L 420.90 387.60 L 413.30 384.10 L 407.90 382.60 L 402.30 381.60 L 396.60 381.20 L 390.90 381.40 L 385.30 382.20 L 379.90 383.60 L 372.20 386.90 L 365.40 391.40 L 362.40 394.20 L 359.70 397.30 L 357.40 400.80 L 355.40 404.70 Z" fill="#eea056" fill-rule="nonzero" node-id="130" stroke="none" target-height="147.69998" target-width="227.29999" target-x="327.2" target-y="323.1"></path><path d="M 271.00 365.80 L 272.00 365.40 L 274.20 369.50 L 275.80 373.90 L 277.00 378.40 L 277.50 383.10 L 277.50 387.70 L 276.80 392.40 L 276.00 395.70 L 274.70 398.90 L 273.00 402.00 L 271.00 405.00 L 267.00 409.80 L 262.70 414.30 L 258.10 418.40 L 253.20 422.30 L 242.80 429.10 L 231.70 434.70 L 225.80 436.90 L 213.90 440.40 L 201.50 442.40 L 195.30 442.90 L 182.90 442.70 L 176.70 442.00 L 170.60 440.90 L 164.60 439.30 L 158.60 437.40 L 167.40 435.80 L 176.40 434.70 L 203.70 432.20 L 212.60 430.80 L 218.50 429.60 L 224.10 427.90 L 229.70 425.90 L 237.70 421.80 L 245.30 416.30 L 240.80 408.40 L 247.50 408.80 L 241.80 391.10 L 235.40 392.50 L 250.60 382.50 L 238.00 381.90 L 246.00 377.40 L 254.30 373.30 L 271.00 365.80 Z M 262.30 380.60 L 261.90 383.00 L 261.30 391.20 L 260.80 393.60 L 259.70 395.60 L 258.60 396.70 L 257.20 397.40 L 255.10 397.90 L 255.60 401.10 L 259.10 398.60 L 262.00 395.70 L 264.40 392.50 L 267.00 387.00 L 268.20 380.70 L 262.30 380.60 Z" fill="#e9e6e6" fill-rule="nonzero" node-id="132" stroke="none" target-height="77.5" target-width="118.899994" target-x="158.6" target-y="365.4"></path><path d="M 577.00 371.30 L 599.40 379.20 L 610.50 383.60 L 621.30 388.60 L 620.90 391.70 L 620.90 394.80 L 621.40 397.80 L 622.30 400.70 L 623.50 403.40 L 625.20 405.90 L 627.10 408.10 L 629.40 409.90 L 632.00 411.30 L 634.70 412.20 L 637.80 412.60 L 641.20 412.40 L 643.40 412.60 L 645.00 412.40 L 646.20 411.90 L 648.00 409.80 L 648.50 408.30 L 650.50 398.30 L 656.50 397.30 L 668.80 396.40 L 674.90 396.60 L 680.90 397.40 L 686.90 398.90 L 679.00 400.50 L 671.00 401.60 L 654.80 403.00 L 665.00 428.40 L 669.90 442.80 L 672.60 454.60 L 673.40 460.60 L 673.60 466.70 L 673.40 472.90 L 670.80 476.40 L 662.10 465.40 L 657.20 460.30 L 652.00 455.70 L 648.20 453.00 L 640.20 448.40 L 636.00 446.70 L 631.50 445.40 L 626.80 444.50 L 621.40 444.00 L 616.00 444.00 L 610.40 444.60 L 604.90 445.80 L 599.60 447.50 L 594.50 449.80 L 590.90 451.90 L 584.50 456.90 L 581.60 459.80 L 579.10 463.00 L 577.00 466.50 L 575.30 470.30 L 574.00 474.30 L 576.20 478.40 L 579.00 482.20 L 585.20 489.30 L 583.20 494.00 L 556.50 477.70 L 566.40 424.40 L 577.00 371.30 Z" fill="#f09e56" fill-rule="nonzero" node-id="134" stroke="none" target-height="122.70001" target-width="130.40002" target-x="556.5" target-y="371.3"></path><path d="M 686.90 398.90 L 688.90 398.50 L 691.40 404.60 L 693.10 410.80 L 694.30 416.90 L 694.90 423.20 L 695.00 435.80 L 691.70 474.10 L 691.50 480.40 L 692.10 493.00 L 689.10 492.80 L 686.50 492.30 L 684.30 491.40 L 682.30 490.20 L 679.90 488.10 L 677.90 485.60 L 676.20 482.70 L 674.00 476.30 L 673.40 472.90 L 673.60 466.70 L 673.40 460.60 L 672.60 454.60 L 669.90 442.80 L 665.00 428.40 L 654.80 403.00 L 671.00 401.60 L 679.00 400.50 L 686.90 398.90 Z" fill="#e48f53" fill-rule="nonzero" node-id="136" stroke="none" target-height="94.5" target-width="40.200012" target-x="654.8" target-y="398.5"></path><path d="M 696.40 397.50 L 705.00 399.30 L 713.40 401.40 L 721.70 404.00 L 729.80 407.10 L 737.80 410.60 L 745.60 414.60 L 753.00 419.00 L 762.10 425.10 L 764.00 425.70 L 765.90 425.80 L 768.10 425.40 L 770.40 424.40 L 773.80 432.10 L 776.60 431.90 L 778.90 432.20 L 780.90 433.00 L 784.20 435.60 L 785.50 437.50 L 786.90 440.50 L 787.90 444.00 L 788.40 451.20 L 787.00 452.70 L 783.70 454.40 L 781.00 455.00 L 778.10 455.00 L 768.90 454.20 L 765.80 454.20 L 762.90 454.70 L 756.60 457.40 L 753.50 459.40 L 750.80 461.80 L 746.10 467.30 L 735.60 485.00 L 729.90 492.40 L 727.00 495.00 L 723.90 497.20 L 713.80 503.10 L 710.90 494.20 L 710.10 489.80 L 709.40 483.00 L 709.20 476.20 L 710.00 448.50 L 709.60 441.70 L 708.70 434.90 L 705.90 425.50 L 696.40 397.50 Z M 776.70 437.90 L 775.10 440.00 L 774.80 441.40 L 774.70 443.50 L 775.20 445.60 L 775.90 446.80 L 777.70 448.30 L 778.70 448.60 L 780.00 448.30 L 781.50 447.50 L 783.10 445.30 L 783.50 443.90 L 783.60 441.70 L 783.10 439.60 L 782.40 438.30 L 780.60 436.80 L 779.50 436.60 L 778.30 436.90 L 776.70 437.90 Z" fill="#35293c" fill-rule="nonzero" node-id="138" stroke="none" target-height="105.600006" target-width="92" target-x="696.4" target-y="397.5"></path><path d="M 887.80 420.90 L 890.30 420.40 L 891.90 420.60 L 892.90 421.20 L 893.50 422.20 L 893.70 423.80 L 893.40 426.40 L 890.90 426.90 L 889.20 426.70 L 888.20 426.10 L 887.60 425.10 L 887.40 423.50 L 887.80 420.90 Z" fill="#a9a5a7" fill-rule="nonzero" node-id="140" stroke="none" target-height="6.5" target-width="6.299988" target-x="887.4" target-y="420.4"></path><path d="M 202.80 450.40 L 210.40 449.00 L 217.90 447.20 L 232.70 442.70 L 247.30 437.60 L 248.50 446.60 L 250.30 455.40 L 252.70 464.10 L 255.70 472.70 L 259.10 481.00 L 263.00 489.20 L 279.30 531.20 L 285.10 545.10 L 289.40 554.20 L 298.80 571.80 L 304.10 580.20 L 309.90 588.30 L 316.30 596.10 L 323.40 602.80 L 330.80 609.00 L 338.60 614.80 L 346.60 620.20 L 355.00 625.10 L 363.60 629.50 L 372.50 633.50 L 381.50 636.90 L 390.80 639.90 L 400.20 642.30 L 409.70 644.10 L 419.30 645.40 L 416.90 653.90 L 414.90 662.50 L 413.30 671.20 L 412.20 680.00 L 411.40 688.80 L 411.00 697.60 L 411.10 706.40 L 411.60 715.20 L 412.60 724.00 L 413.90 732.70 L 415.70 741.30 L 418.00 749.80 L 420.70 758.20 L 423.90 766.40 L 427.50 774.50 L 431.60 782.40 L 432.40 788.40 L 432.80 794.40 L 432.80 800.60 L 420.70 787.80 L 413.40 781.40 L 406.70 777.30 L 396.60 773.20 L 386.10 770.60 L 378.90 769.50 L 371.70 769.10 L 364.40 769.30 L 357.20 770.10 L 350.00 771.40 L 343.00 773.40 L 343.10 760.20 L 342.90 755.70 L 341.60 747.10 L 340.40 742.90 L 338.80 738.90 L 336.60 735.00 L 331.00 726.30 L 325.00 718.00 L 318.70 709.90 L 305.10 694.50 L 298.00 687.20 L 286.90 676.40 L 263.80 656.00 L 250.30 644.60 L 248.70 643.60 L 246.90 642.90 L 244.20 642.40 L 241.30 642.40 L 235.40 643.60 L 230.50 637.30 L 226.10 630.70 L 222.20 623.80 L 218.80 616.80 L 215.90 609.50 L 213.30 602.00 L 209.20 586.70 L 205.50 567.20 L 199.30 521.20 L 195.50 486.70 L 194.00 463.60 L 193.80 452.00 L 202.80 450.40 Z" fill="#ed9e56" fill-rule="nonzero" node-id="142" stroke="none" target-height="362.99997" target-width="238.99998" target-x="193.8" target-y="437.6"></path><path d="M 298.90 478.70 L 308.00 469.90 L 315.80 460.00 L 319.20 454.70 L 322.20 449.20 L 324.90 443.50 L 327.20 437.60 L 345.20 464.30 L 351.60 458.40 L 355.10 455.80 L 358.90 453.50 L 366.90 450.10 L 371.00 449.00 L 375.30 448.40 L 379.60 448.20 L 383.80 448.60 L 388.10 449.60 L 394.60 452.00 L 398.20 454.20 L 400.60 456.40 L 408.70 466.80 L 410.90 469.10 L 414.30 471.50 L 416.30 472.40 L 410.20 475.50 L 404.40 479.10 L 398.80 483.00 L 379.80 498.80 L 365.80 509.90 L 351.50 520.50 L 337.00 530.80 L 337.40 525.80 L 340.00 505.20 L 340.30 500.10 L 340.10 495.00 L 339.40 489.90 L 337.50 487.60 L 335.40 485.80 L 333.10 484.40 L 327.90 482.50 L 320.80 481.40 L 307.30 480.50 L 303.00 479.80 L 298.90 478.70 Z" fill="#ef8c63" fill-rule="nonzero" node-id="144" stroke="none" target-height="93.19998" target-width="117.399994" target-x="298.9" target-y="437.6"></path><path d="M 341.10 458.50 L 344.90 454.70 L 348.90 451.30 L 353.20 448.20 L 357.80 445.50 L 362.60 443.30 L 367.50 441.50 L 372.60 440.10 L 377.80 439.30 L 383.10 438.90 L 388.30 439.00 L 393.60 439.70 L 398.80 440.90 L 405.10 443.50 L 407.90 445.30 L 411.90 448.40 L 415.60 451.90 L 422.50 459.30 L 419.70 470.80 L 416.30 472.40 L 414.30 471.50 L 410.90 469.10 L 408.70 466.80 L 400.60 456.40 L 398.20 454.20 L 394.60 452.00 L 388.10 449.60 L 383.80 448.60 L 379.60 448.20 L 375.30 448.40 L 371.00 449.00 L 366.90 450.10 L 362.80 451.60 L 358.90 453.50 L 355.10 455.80 L 351.60 458.40 L 345.20 464.30 L 341.10 458.50 Z" fill="#292441" fill-rule="nonzero" node-id="146" stroke="none" target-height="33.5" target-width="81.399994" target-x="341.1" target-y="438.9"></path><path d="M 776.70 437.90 L 778.30 436.90 L 779.50 436.60 L 780.60 436.80 L 782.40 438.30 L 783.10 439.60 L 783.60 441.70 L 783.50 443.90 L 782.50 446.50 L 781.50 447.50 L 780.00 448.30 L 778.70 448.60 L 777.70 448.30 L 775.90 446.80 L 774.70 443.50 L 774.80 441.40 L 775.10 440.00 L 776.70 437.90 Z" fill="#7b727c" fill-rule="nonzero" node-id="148" stroke="none" target-height="12" target-width="8.899963" target-x="774.7" target-y="436.6"></path><path d="M 574.00 474.30 L 575.30 470.30 L 577.00 466.50 L 579.10 463.00 L 581.60 459.80 L 584.50 456.90 L 590.90 451.90 L 594.50 449.80 L 599.60 447.50 L 604.90 445.80 L 610.40 444.60 L 616.00 444.00 L 621.40 444.00 L 631.50 445.40 L 636.00 446.70 L 640.20 448.40 L 648.20 453.00 L 652.00 455.70 L 657.20 460.30 L 662.10 465.40 L 670.80 476.40 L 667.30 480.90 L 656.30 470.10 L 652.40 466.70 L 646.70 463.00 L 643.60 461.50 L 635.90 459.00 L 628.00 458.10 L 622.60 458.30 L 617.30 459.00 L 612.00 460.30 L 606.90 462.10 L 602.10 464.30 L 597.40 467.00 L 595.40 469.00 L 592.20 473.60 L 585.20 489.30 L 579.00 482.20 L 576.20 478.40 L 574.00 474.30 Z" fill="#272132" fill-rule="nonzero" node-id="150" stroke="none" target-height="45.299988" target-width="96.79999" target-x="574" target-y="444"></path><path d="M 185.50 451.60 L 202.80 450.40 L 193.80 452.00 L 194.00 463.60 L 195.50 486.70 L 199.30 521.20 L 203.80 555.60 L 207.50 578.90 L 209.20 586.70 L 213.30 602.00 L 215.90 609.50 L 218.80 616.80 L 222.20 623.80 L 226.10 630.70 L 230.50 637.30 L 243.40 653.00 L 275.90 690.30 L 288.60 706.50 L 297.70 720.20 L 224.60 637.30 L 220.10 631.30 L 216.20 624.90 L 212.70 618.30 L 209.60 611.50 L 206.90 604.40 L 204.70 597.30 L 202.80 590.00 L 201.40 582.60 L 195.70 539.00 L 185.50 451.60 Z" fill="#fcf2ec" fill-rule="nonzero" node-id="152" stroke="none" target-height="269.80002" target-width="112.20001" target-x="185.5" target-y="450.4"></path><path d="M 597.40 467.00 L 602.10 464.30 L 606.90 462.10 L 612.00 460.30 L 617.30 459.00 L 622.60 458.30 L 628.00 458.10 L 632.00 458.40 L 639.80 460.10 L 643.60 461.50 L 646.70 463.00 L 652.40 466.70 L 656.30 470.10 L 667.30 480.90 L 673.40 472.90 L 674.00 476.30 L 676.20 482.70 L 677.90 485.60 L 679.90 488.10 L 682.30 490.20 L 684.30 491.40 L 686.50 492.30 L 689.10 492.80 L 692.10 493.00 L 695.40 508.40 L 676.10 506.40 L 671.20 506.30 L 666.50 506.70 L 663.50 507.30 L 657.80 509.60 L 655.30 511.30 L 653.00 513.50 L 648.40 519.80 L 646.80 523.30 L 645.80 526.90 L 645.40 530.60 L 645.40 534.40 L 645.90 538.20 L 648.00 545.70 L 649.50 549.30 L 652.20 554.60 L 655.10 559.50 L 652.40 558.50 L 647.40 554.60 L 638.20 545.90 L 631.80 538.90 L 613.20 517.10 L 604.30 508.10 L 599.50 504.00 L 594.50 500.30 L 589.10 496.90 L 583.20 494.00 L 590.30 477.40 L 592.20 473.60 L 595.40 469.00 L 597.40 467.00 Z" fill="#f69362" fill-rule="nonzero" node-id="154" stroke="none" target-height="101.399994" target-width="112.20001" target-x="583.2" target-y="458.1"></path><path d="M 285.00 503.20 L 285.10 499.80 L 285.80 496.60 L 286.90 493.70 L 288.40 490.90 L 292.20 485.70 L 298.90 478.70 L 303.00 479.80 L 307.30 480.50 L 325.10 481.90 L 330.60 483.30 L 335.40 485.80 L 337.50 487.60 L 339.40 489.90 L 340.10 495.00 L 340.30 500.10 L 340.00 505.20 L 337.40 525.80 L 337.00 530.90 L 332.90 533.10 L 328.50 534.80 L 324.00 536.10 L 319.40 536.90 L 314.70 537.10 L 310.10 536.80 L 305.50 535.90 L 301.10 534.40 L 296.90 532.30 L 292.40 526.80 L 290.60 523.70 L 288.40 518.80 L 286.70 513.70 L 285.60 508.40 L 285.00 503.20 Z" fill="#f46c6a" fill-rule="nonzero" node-id="156" stroke="none" target-height="58.399963" target-width="55.299988" target-x="285" target-y="478.7"></path><path d="M 692.10 493.00 L 693.40 493.30 L 694.30 496.90 L 695.70 500.20 L 697.50 503.20 L 706.50 514.60 L 708.50 517.60 L 710.00 522.40 L 711.90 532.00 L 712.30 536.90 L 712.30 543.50 L 711.70 550.10 L 710.50 556.60 L 708.90 563.00 L 706.70 569.30 L 704.00 575.40 L 700.90 581.20 L 697.30 586.80 L 693.40 592.00 L 687.60 598.00 L 681.60 603.60 L 675.30 608.70 L 668.60 613.50 L 661.70 617.80 L 654.60 621.80 L 647.30 625.50 L 639.80 628.70 L 629.50 632.60 L 619.00 635.90 L 608.40 638.60 L 597.60 640.80 L 586.80 642.50 L 576.00 643.80 L 549.30 628.80 L 541.20 616.50 L 548.40 617.90 L 569.90 623.40 L 577.20 624.90 L 584.40 625.80 L 589.20 625.90 L 594.10 625.40 L 599.00 624.50 L 606.00 622.10 L 612.80 619.20 L 619.40 615.70 L 628.70 609.50 L 637.10 602.20 L 640.90 598.20 L 644.30 593.80 L 647.40 589.20 L 652.20 580.30 L 653.70 576.00 L 654.30 573.10 L 654.70 567.20 L 654.40 564.30 L 653.60 561.40 L 652.40 558.50 L 660.30 561.00 L 665.70 562.10 L 671.20 562.70 L 676.60 562.80 L 680.20 562.40 L 687.00 560.50 L 690.20 559.00 L 693.20 557.00 L 698.30 551.90 L 701.60 546.60 L 702.70 543.80 L 703.70 539.90 L 704.20 535.80 L 704.20 531.70 L 703.70 527.50 L 702.80 523.40 L 701.50 519.40 L 699.70 515.50 L 695.40 508.40 L 692.10 493.00 Z" fill="#cbc4d6" fill-rule="nonzero" node-id="158" stroke="none" target-height="150.79999" target-width="171.09998" target-x="541.2" target-y="493"></path><path d="M 650.70 516.30 L 653.00 513.50 L 655.30 511.30 L 657.80 509.60 L 663.50 507.30 L 666.50 506.70 L 671.20 506.30 L 676.10 506.40 L 695.40 508.40 L 699.70 515.50 L 701.50 519.40 L 702.80 523.40 L 703.70 527.50 L 704.20 531.70 L 704.20 535.80 L 703.70 539.90 L 702.70 543.80 L 700.10 549.30 L 696.00 554.40 L 693.20 557.00 L 690.20 559.00 L 687.00 560.50 L 683.70 561.60 L 676.60 562.80 L 671.20 562.70 L 665.70 562.10 L 660.30 561.00 L 655.10 559.50 L 652.20 554.60 L 648.00 545.70 L 645.90 538.20 L 645.40 534.40 L 645.40 530.60 L 645.80 526.90 L 646.80 523.30 L 648.40 519.80 L 650.70 516.30 Z" fill="#f46a6d" fill-rule="nonzero" node-id="160" stroke="none" target-height="56.5" target-width="58.799988" target-x="645.4" target-y="506.3"></path><path d="M 321.70 572.10 L 320.50 570.00 L 320.00 567.70 L 319.80 565.40 L 320.50 558.30 L 325.50 565.70 L 331.00 572.80 L 336.80 579.50 L 343.10 585.80 L 349.70 591.80 L 356.60 597.30 L 363.90 602.40 L 371.50 607.10 L 379.30 611.30 L 387.40 615.00 L 395.70 618.20 L 412.60 623.20 L 420.90 625.00 L 429.20 626.30 L 446.10 627.60 L 454.60 627.70 L 467.40 627.30 L 480.20 626.50 L 505.60 624.00 L 502.50 632.60 L 496.80 635.70 L 491.00 638.10 L 485.00 640.00 L 478.90 641.30 L 472.70 642.20 L 466.50 642.70 L 453.90 642.40 L 438.10 640.50 L 417.80 636.70 L 406.80 634.30 L 396.00 631.30 L 385.40 627.80 L 378.40 625.10 L 364.90 618.60 L 363.60 615.30 L 360.90 611.50 L 355.50 606.80 L 344.00 598.50 L 338.80 594.00 L 333.90 589.00 L 329.40 583.70 L 325.40 578.10 L 321.70 572.10 Z" fill="#ddd7e4" fill-rule="nonzero" node-id="162" stroke="none" target-height="84.400024" target-width="185.80002" target-x="319.8" target-y="558.3"></path><path d="M 497.10 646.00 L 501.60 643.30 L 506.40 641.10 L 511.40 639.20 L 516.50 637.90 L 529.10 638.60 L 535.40 639.20 L 541.60 640.30 L 545.60 641.50 L 549.40 643.10 L 555.60 646.90 L 559.70 650.70 L 564.60 657.70 L 570.80 669.00 L 575.10 675.90 L 579.80 681.80 L 583.90 685.70 L 588.40 689.40 L 597.70 696.10 L 601.40 697.30 L 605.10 698.10 L 608.80 698.40 L 612.50 698.30 L 616.20 697.80 L 619.90 696.90 L 626.80 694.00 L 630.10 692.00 L 625.70 681.70 L 617.60 680.80 L 608.30 671.90 L 601.50 666.70 L 594.20 662.60 L 590.10 661.10 L 585.90 660.20 L 581.60 654.50 L 616.60 646.90 L 634.20 644.10 L 637.30 649.60 L 640.00 655.40 L 642.20 661.40 L 643.90 667.50 L 645.10 673.70 L 645.80 680.10 L 646.00 686.50 L 645.70 692.80 L 644.90 699.10 L 644.10 702.20 L 641.70 707.80 L 640.00 710.30 L 637.30 713.40 L 634.20 716.00 L 630.80 718.20 L 627.00 720.00 L 623.10 721.20 L 614.50 722.50 L 605.30 722.60 L 598.60 721.90 L 571.50 716.40 L 562.60 715.50 L 558.70 716.20 L 556.00 717.40 L 553.40 719.00 L 543.60 726.30 L 542.00 723.90 L 540.30 722.10 L 538.50 720.80 L 534.30 719.40 L 528.50 719.30 L 517.10 720.90 L 513.40 721.00 L 509.80 720.60 L 507.60 720.00 L 505.50 719.00 L 501.70 716.10 L 499.60 713.20 L 498.70 710.60 L 498.30 707.80 L 498.30 695.90 L 497.80 693.00 L 496.90 690.40 L 513.80 682.40 L 501.90 685.20 L 489.90 686.80 L 491.50 683.30 L 493.50 680.00 L 495.90 677.10 L 499.90 673.20 L 504.40 669.70 L 514.00 663.50 L 508.30 664.80 L 502.90 666.60 L 497.60 668.80 L 481.90 676.30 L 480.10 671.80 L 484.80 665.70 L 489.20 659.30 L 497.10 646.00 Z" fill="#ef974e" fill-rule="nonzero" node-id="164" stroke="none" target-height="88.39996" target-width="165.9" target-x="480.1" target-y="637.9"></path><path d="M 235.40 643.60 L 241.30 642.40 L 244.20 642.40 L 246.90 642.90 L 250.30 644.60 L 275.40 666.10 L 286.90 676.40 L 305.10 694.50 L 318.70 709.90 L 325.00 718.00 L 331.00 726.30 L 336.60 735.00 L 338.80 738.90 L 340.40 742.90 L 342.40 751.40 L 343.10 760.20 L 343.00 774.10 L 337.60 777.30 L 332.50 780.90 L 327.70 784.80 L 323.30 789.10 L 319.10 793.80 L 315.30 798.70 L 311.80 803.80 L 308.60 809.20 L 308.10 803.30 L 308.00 791.60 L 308.70 782.80 L 312.30 756.50 L 313.10 747.70 L 313.70 734.50 L 304.80 728.20 L 299.80 723.20 L 288.60 706.50 L 275.90 690.30 L 235.40 643.60 Z" fill="#e48d52" fill-rule="nonzero" node-id="166" stroke="none" target-height="166.79999" target-width="107.70001" target-x="235.4" target-y="642.4"></path><path d="M 644.10 639.50 L 646.50 640.40 L 650.60 643.10 L 652.30 644.80 L 653.60 646.80 L 654.70 649.20 L 660.20 663.00 L 662.50 670.10 L 666.00 684.50 L 667.30 691.90 L 667.80 704.10 L 667.50 710.10 L 666.50 719.10 L 664.80 728.10 L 662.70 737.00 L 655.00 763.30 L 627.40 749.00 L 611.50 742.30 L 623.30 733.40 L 639.40 725.60 L 643.10 723.20 L 646.40 720.30 L 648.30 718.10 L 649.80 715.60 L 653.10 708.10 L 654.60 703.60 L 655.70 699.00 L 656.30 694.40 L 656.60 688.20 L 656.40 682.00 L 655.60 675.70 L 652.80 663.30 L 650.90 657.20 L 644.10 639.50 Z" fill="#e29256" fill-rule="nonzero" node-id="168" stroke="none" target-height="123.79999" target-width="56.299988" target-x="611.5" target-y="639.5"></path><path d="M 466.20 665.90 L 467.50 662.80 L 469.10 660.20 L 471.00 657.80 L 475.80 653.80 L 482.80 650.00 L 487.30 648.30 L 496.20 645.40 L 494.10 647.70 L 483.80 656.90 L 480.60 661.20 L 479.20 665.10 L 479.00 667.10 L 479.30 669.30 L 480.10 671.80 L 487.70 689.90 L 483.60 688.50 L 479.70 686.60 L 475.90 684.20 L 472.60 681.40 L 470.70 679.20 L 467.80 674.50 L 466.80 671.80 L 466.30 669.00 L 466.20 665.90 Z" fill="#f1b26b" fill-rule="nonzero" node-id="170" stroke="none" target-height="44.5" target-width="30" target-x="466.2" target-y="645.4"></path><path d="M 585.90 660.20 L 590.10 661.10 L 594.10 662.60 L 601.50 666.70 L 608.30 671.90 L 617.60 680.80 L 607.30 688.90 L 593.90 685.30 L 605.60 684.70 L 597.70 677.60 L 594.00 673.80 L 590.70 669.60 L 588.80 666.70 L 585.90 660.20 Z" fill="#d27e41" fill-rule="nonzero" node-id="172" stroke="none" target-height="28.700012" target-width="31.699951" target-x="585.9" target-y="660.2"></path><path d="M 617.60 680.80 L 625.70 681.70 L 630.10 692.00 L 623.40 695.60 L 616.20 697.80 L 612.50 698.30 L 608.80 698.40 L 605.10 698.10 L 601.40 697.30 L 597.70 696.10 L 617.60 680.80 Z" fill="#eec075" fill-rule="nonzero" node-id="174" stroke="none" target-height="17.600037" target-width="32.399963" target-x="597.7" target-y="680.8"></path><path d="M 542.80 733.00 L 555.40 728.10 L 558.60 727.30 L 561.90 726.90 L 566.20 727.40 L 575.20 730.10 L 581.90 731.70 L 595.60 733.80 L 609.40 734.40 L 623.30 733.40 L 611.50 742.30 L 622.10 746.70 L 632.60 751.60 L 602.70 752.20 L 599.30 749.50 L 595.70 747.30 L 592.10 745.40 L 586.30 743.00 L 580.20 741.20 L 574.00 739.80 L 555.00 736.30 L 548.80 734.80 L 542.80 733.00 Z" fill="#f3af66" fill-rule="nonzero" node-id="176" stroke="none" target-height="25.299988" target-width="89.79999" target-x="542.8" target-y="726.9"></path><path d="M 517.90 728.60 L 531.80 729.40 L 527.20 766.60 L 512.10 765.80 L 513.80 759.70 L 516.20 747.40 L 517.30 738.00 L 517.90 728.60 Z" fill="#fbf6e3" fill-rule="nonzero" node-id="178" stroke="none" target-height="38" target-width="19.700012" target-x="512.1" target-y="728.6"></path><path d="M 540.40 732.40 L 555.00 736.30 L 574.00 739.80 L 580.20 741.20 L 586.30 743.00 L 592.10 745.40 L 595.70 747.30 L 599.30 749.50 L 602.70 752.20 L 596.00 754.50 L 589.60 757.20 L 583.40 760.40 L 577.50 764.00 L 571.80 768.00 L 566.40 772.30 L 561.30 777.10 L 556.50 782.30 L 552.40 776.70 L 547.80 771.50 L 542.90 766.60 L 537.50 762.10 L 538.10 752.10 L 539.00 742.20 L 540.40 732.40 Z" fill="#fbd68e" fill-rule="nonzero" node-id="180" stroke="none" target-height="49.899963" target-width="65.20001" target-x="537.5" target-y="732.4"></path><path d="M 308.50 740.90 L 313.40 738.90 L 313.10 747.70 L 312.30 756.50 L 308.70 782.80 L 308.00 791.60 L 308.10 803.30 L 308.60 809.20 L 300.90 817.50 L 300.30 804.60 L 301.50 788.70 L 307.50 750.40 L 308.50 740.90 Z" fill="#f0e9e3" fill-rule="nonzero" node-id="182" stroke="none" target-height="78.599976" target-width="13.100006" target-x="300.3" target-y="738.9"></path><path d="M 663.80 769.50 L 668.60 764.90 L 673.70 760.80 L 676.70 764.30 L 679.10 768.00 L 680.90 772.00 L 682.30 776.20 L 683.20 780.60 L 683.60 785.10 L 683.50 794.30 L 682.90 798.90 L 681.70 805.60 L 680.00 812.00 L 677.70 806.80 L 675.80 801.40 L 668.90 779.70 L 666.60 774.50 L 663.80 769.50 Z" fill="#b15b3a" fill-rule="nonzero" node-id="184" stroke="none" target-height="51.200012" target-width="19.799988" target-x="663.8" target-y="760.8"></path><path d="M 573.70 797.40 L 578.30 791.80 L 583.20 786.40 L 586.80 783.10 L 590.60 780.10 L 597.70 775.70 L 604.40 773.30 L 612.60 772.10 L 617.00 772.10 L 621.40 772.40 L 627.90 773.60 L 634.30 775.30 L 647.00 779.30 L 654.90 784.10 L 662.20 789.90 L 665.90 798.60 L 669.30 807.50 L 675.70 827.80 L 675.90 829.90 L 675.60 831.90 L 674.60 834.80 L 672.90 837.70 L 669.10 842.90 L 664.80 847.80 L 660.10 852.20 L 655.20 856.30 L 649.90 860.00 L 644.40 863.30 L 638.70 866.20 L 632.70 868.70 L 626.60 870.80 L 620.40 872.50 L 614.10 873.80 L 607.70 874.70 L 598.00 875.20 L 591.10 874.20 L 587.70 873.20 L 584.50 871.90 L 581.60 870.20 L 578.90 868.10 L 576.70 865.60 L 574.80 862.60 L 573.60 853.30 L 573.20 844.00 L 569.80 843.80 L 566.50 861.80 L 563.20 860.40 L 560.30 858.60 L 557.60 856.60 L 555.10 854.20 L 552.20 850.60 L 549.90 846.70 L 548.10 842.50 L 546.80 838.00 L 546.20 833.50 L 546.20 828.90 L 546.60 825.50 L 547.40 822.20 L 548.60 819.00 L 550.20 815.90 L 561.00 815.40 L 572.30 810.10 L 588.90 813.70 L 605.50 817.80 L 602.40 814.70 L 599.10 812.10 L 595.50 809.90 L 589.80 807.20 L 583.80 805.00 L 571.60 801.20 L 573.70 797.40 Z" fill="#f39950" fill-rule="nonzero" node-id="186" stroke="none" target-height="103.10004" target-width="129.70001" target-x="546.2" target-y="772.1"></path><path d="M 431.60 782.40 L 434.00 786.30 L 436.80 789.80 L 439.80 792.90 L 444.80 797.20 L 461.10 809.10 L 467.90 814.90 L 474.60 822.40 L 484.80 835.80 L 488.50 840.10 L 492.70 843.90 L 499.00 846.00 L 502.20 846.60 L 507.10 846.90 L 517.10 846.20 L 531.90 843.70 L 536.00 825.40 L 535.50 831.00 L 535.60 836.50 L 536.10 842.00 L 537.20 847.30 L 538.70 852.60 L 540.70 857.80 L 519.30 860.40 L 508.50 861.20 L 497.70 861.60 L 486.90 861.60 L 476.10 861.10 L 465.40 860.10 L 454.70 858.50 L 444.10 856.20 L 447.20 848.60 L 449.60 840.80 L 450.20 836.80 L 450.00 829.50 L 448.50 823.70 L 446.70 819.60 L 441.60 811.90 L 432.80 801.30 L 432.80 794.40 L 432.40 788.40 L 431.60 782.40 Z" fill="#cabecd" fill-rule="nonzero" node-id="188" stroke="none" target-height="79.19995" target-width="109.100006" target-x="431.6" target-y="782.4"></path><path d="M 348.00 793.30 L 352.10 791.20 L 356.40 789.50 L 360.80 788.30 L 367.50 787.00 L 374.40 786.40 L 388.30 786.20 L 403.50 787.90 L 407.90 790.80 L 411.40 794.80 L 412.70 797.00 L 414.30 802.00 L 414.60 804.60 L 414.40 810.90 L 413.80 814.30 L 412.80 817.50 L 409.90 823.60 L 404.90 830.60 L 395.30 842.90 L 399.30 841.60 L 402.90 839.80 L 406.30 837.70 L 412.10 832.30 L 414.60 829.20 L 418.00 824.20 L 420.80 818.70 L 425.30 807.50 L 430.50 813.90 L 435.20 820.80 L 437.00 824.50 L 438.20 828.30 L 438.60 831.00 L 438.60 833.70 L 437.40 840.80 L 436.10 844.80 L 434.20 848.40 L 431.80 851.80 L 429.00 854.90 L 425.80 857.60 L 422.40 860.00 L 418.70 861.80 L 414.70 863.30 L 405.50 865.90 L 396.10 867.90 L 389.70 868.90 L 376.90 869.90 L 370.50 869.80 L 364.10 869.30 L 357.80 868.40 L 351.60 867.10 L 345.50 865.20 L 339.50 862.80 L 331.80 859.00 L 324.20 854.70 L 319.40 851.50 L 314.90 847.90 L 310.70 844.00 L 307.90 840.80 L 303.00 833.70 L 301.10 829.80 L 314.70 817.10 L 325.60 820.90 L 325.90 817.60 L 326.60 814.60 L 327.70 811.80 L 330.90 806.70 L 336.30 801.20 L 340.10 798.30 L 348.00 793.30 Z" fill="#f59b51" fill-rule="nonzero" node-id="190" stroke="none" target-height="83.70001" target-width="137.5" target-x="301.1" target-y="786.2"></path><path d="M 559.30 804.40 L 561.10 805.70 L 561.50 806.50 L 561.50 808.10 L 560.20 811.60 L 559.10 813.30 L 556.70 815.60 L 550.20 815.90 L 550.70 813.50 L 551.80 811.20 L 553.20 809.00 L 555.00 807.10 L 557.10 805.50 L 559.30 804.40 Z" fill="#dea877" fill-rule="nonzero" node-id="192" stroke="none" target-height="11.5" target-width="11.299988" target-x="550.2" target-y="804.4"></path></svg>